<?xml version="1.0" encoding="UTF-8"?>
<svg version="1.1" xmlns="http://www.w3.org/2000/svg" width="680" height="630">
<path d="M0 0 C224.4 0 448.8 0 680 0 C680 207.9 680 415.8 680 630 C455.6 630 231.2 630 0 630 C0 422.1 0 214.2 0 0 Z " fill="#F3E9FD" transform="translate(0,0)"/>
<path d="M0 0 C1.13953125 -0.02578125 2.2790625 -0.0515625 3.453125 -0.078125 C7.07457784 0.28230396 8.96065261 0.92204842 11.75 3.25 C11.75 4.57 11.75 5.89 11.75 7.25 C12.41 7.25 13.07 7.25 13.75 7.25 C14.56791016 9.01150391 14.56791016 9.01150391 15.40234375 10.80859375 C19.51010894 19.59832787 23.75055661 28.26775271 28.35961914 36.80541992 C31.71602731 43.07144881 34.76078948 49.46901075 37.74414062 55.91992188 C39.18347808 59.01860601 40.59929745 62.00339582 42.3828125 64.921875 C43.95728574 67.602978 44.85248444 70.28129468 45.75 73.25 C48.29173977 73.27716824 50.83318415 73.29691969 53.375 73.3125 C54.44427734 73.32506836 54.44427734 73.32506836 55.53515625 73.33789062 C56.58896484 73.34272461 56.58896484 73.34272461 57.6640625 73.34765625 C58.3029541 73.35289307 58.9418457 73.35812988 59.60009766 73.36352539 C61.87745795 73.28523445 61.87745795 73.28523445 64.59912109 72.76147461 C67.84905672 72.23392036 70.95998516 72.05907167 74.25 71.96875 C76.0753125 71.91267578 76.0753125 71.91267578 77.9375 71.85546875 C80.47916667 71.78515625 83.02083333 71.71484375 85.5625 71.64453125 C87.3878125 71.58845703 87.3878125 71.58845703 89.25 71.53125 C90.3534375 71.50095703 91.456875 71.47066406 92.59375 71.43945312 C95.71069571 71.25235923 98.67738814 70.79138878 101.75 70.25 C115.74439471 68.8789438 115.74439471 68.8789438 121.37890625 71.44921875 C124.54975724 74.07725182 126.02076292 76.17254534 126.75 80.25 C127.22624225 85.96490702 126.61763341 89.23652229 123.83984375 94.21875 C122.11393698 97.4354938 120.97637278 100.81615623 119.75 104.25 C119.09 104.25 118.43 104.25 117.75 104.25 C117.440625 106.0134375 117.440625 106.0134375 117.125 107.8125 C115.57493241 114.9245748 112.55308268 121.55962342 109.75 128.25 C109.09 128.25 108.43 128.25 107.75 128.25 C107.4096875 130.10625 107.4096875 130.10625 107.0625 132 C105.95843717 137.1012538 103.96107688 141.63244384 101.7734375 146.35546875 C100.66136213 149.50068956 100.56362048 151.93931122 100.75 155.25 C101.554375 155.53875 102.35875 155.8275 103.1875 156.125 C105.75 157.25 105.75 157.25 106.75 159.25 C108.60744207 159.86067144 108.60744207 159.86067144 110.75 160.25 C112.9375 160.6875 112.9375 160.6875 114.75 161.25 C115.08 161.91 115.41 162.57 115.75 163.25 C117.77463255 163.90213292 117.77463255 163.90213292 119.75 164.25 C119.75 164.91 119.75 165.57 119.75 166.25 C121.4 166.91 123.05 167.57 124.75 168.25 C124.75 168.91 124.75 169.57 124.75 170.25 C128.05 170.91 131.35 171.57 134.75 172.25 C135.08 173.24 135.41 174.23 135.75 175.25 C137.75060057 176.16521187 137.75060057 176.16521187 140.125 176.75 C143.5846716 177.69662024 145.31632429 178.63291685 147.75 181.25 C149.85332891 181.96447643 149.85332891 181.96447643 151.75 182.25 C151.75 182.91 151.75 183.57 151.75 184.25 C153.4 184.91 155.05 185.57 156.75 186.25 C156.75 186.91 156.75 187.57 156.75 188.25 C160.05 188.91 163.35 189.57 166.75 190.25 C167.08 191.24 167.41 192.23 167.75 193.25 C169.75060057 194.16521187 169.75060057 194.16521187 172.125 194.75 C175.5846716 195.69662024 177.31632429 196.63291685 179.75 199.25 C181.85332891 199.96447643 181.85332891 199.96447643 183.75 200.25 C183.75 200.91 183.75 201.57 183.75 202.25 C184.63751953 202.45302734 184.63751953 202.45302734 185.54296875 202.66015625 C190.68511342 204.06103416 194.10365706 205.51189629 196.9375 210.15625 C198.47852026 214.12734067 198.6780554 218.10895278 197.75 222.25 C194.67923138 228.97346132 189.04607526 231.12886975 182.625 234.25 C180.62084386 235.24688596 178.61822509 236.24686889 176.6171875 237.25 C175.63331055 237.74242187 174.64943359 238.23484375 173.63574219 238.7421875 C170.01176736 240.63572968 166.54438267 242.74003618 163.05908203 244.875 C159.71506417 246.86627813 156.25519319 248.56445467 152.75 250.25 C147.3573218 252.8907575 142.18042259 255.70194196 137.0703125 258.86328125 C126.38380282 265.25 126.38380282 265.25 122.75 265.25 C122.42 266.24 122.09 267.23 121.75 268.25 C121.09 268.25 120.43 268.25 119.75 268.25 C120.08 269.1575 120.41 270.065 120.75 271 C121.75 274.25 121.75 274.25 121.75 278.25 C122.41 278.25 123.07 278.25 123.75 278.25 C123.75 279.57 123.75 280.89 123.75 282.25 C124.41 282.25 125.07 282.25 125.75 282.25 C126.02972656 283.25804687 126.30945313 284.26609375 126.59765625 285.3046875 C127.66697661 289.04213615 128.89410294 292.70836036 130.1875 296.375 C130.59871094 297.55320312 131.00992187 298.73140625 131.43359375 299.9453125 C132.63218674 303.23409201 132.63218674 303.23409201 134.41015625 305.9296875 C135.75 308.25 135.75 308.25 135.75 312.25 C136.41 312.25 137.07 312.25 137.75 312.25 C137.75 313.57 137.75 314.89 137.75 316.25 C138.41 316.25 139.07 316.25 139.75 316.25 C140.02972656 317.25804687 140.30945313 318.26609375 140.59765625 319.3046875 C141.66697661 323.04213615 142.89410294 326.70836036 144.1875 330.375 C144.59871094 331.55320312 145.00992187 332.73140625 145.43359375 333.9453125 C146.63218674 337.23409201 146.63218674 337.23409201 148.41015625 339.9296875 C149.75 342.25 149.75 342.25 149.75 346.25 C150.41 346.25 151.07 346.25 151.75 346.25 C151.75 347.57 151.75 348.89 151.75 350.25 C152.41 350.25 153.07 350.25 153.75 350.25 C153.9975 351.178125 154.245 352.10625 154.5 353.0625 C155.4098386 356.33264453 156.613402 359.41297874 157.875 362.5625 C159.87830274 367.91947992 160.19247006 372.58392502 159.75 378.25 C159.09 378.25 158.43 378.25 157.75 378.25 C157.62625 378.86875 157.5025 379.4875 157.375 380.125 C156.75 382.25 156.75 382.25 154.75 384.25 C153.76 384.25 152.77 384.25 151.75 384.25 C151.75 384.91 151.75 385.57 151.75 386.25 C143.85476766 386.74923015 136.33560798 385.71148717 128.55981445 384.52807617 C121.14007081 383.41211681 113.710507 382.54489423 106.25 381.75 C97.01564098 380.7608842 87.82904487 379.60544777 78.64355469 378.23657227 C73.4542268 377.46924474 68.29023733 376.90179023 63.05859375 376.5 C59.20464494 376.08265191 55.51108502 375.17485697 51.75 374.25 C51.4921875 374.98089844 51.234375 375.71179688 50.96875 376.46484375 C49.70556413 379.35154736 48.24323702 381.38429812 46.25 383.8125 C44.4648741 385.99474077 42.90568951 387.93472875 41.65625 390.46484375 C40.75 392.25 40.75 392.25 38.75 393.25 C38.42 394.24 38.09 395.23 37.75 396.25 C37.09 396.25 36.43 396.25 35.75 396.25 C35.64558594 396.8275 35.54117187 397.405 35.43359375 398 C34.6441049 400.59854617 33.50252379 402.1343712 31.8125 404.25 C30.19554811 406.28410164 28.8239543 408.09829888 27.68359375 410.4375 C26.75 412.25 26.75 412.25 24.75 413.25 C24.42 414.24 24.09 415.23 23.75 416.25 C23.09 416.25 22.43 416.25 21.75 416.25 C21.64429688 416.82878906 21.53859375 417.40757812 21.4296875 418.00390625 C20.6511107 420.57678936 19.54421417 422.09060161 17.875 424.1875 C15.60309917 427.11162117 13.59025047 430.02956167 11.75 433.25 C11.09 434.24 10.43 435.23 9.75 436.25 C9.09 436.25 8.43 436.25 7.75 436.25 C7.75 436.91 7.75 437.57 7.75 438.25 C-5.36884651 439.32615538 -5.36884651 439.32615538 -9.8515625 436.76171875 C-11.17680161 435.52602282 -12.46124467 434.24472408 -13.6953125 432.91796875 C-15.65450994 430.81601572 -17.58218287 430.25043143 -20.25 429.25 C-27.767934 424.21413199 -27.767934 424.21413199 -29.25 421.25 C-31.57257418 420.20256458 -33.89369123 419.2139445 -36.25 418.25 C-41.41733065 415.94119269 -48.61037133 412.52925734 -51.25 407.25 C-52.85160731 406.56846498 -54.45560987 405.89208856 -56.0703125 405.2421875 C-59.5906472 403.63974124 -62.82350526 401.5799401 -66.11328125 399.5546875 C-69.81943783 397.29169609 -71.84447459 396.68929677 -76.25 397.25 C-78.65627618 398.68042068 -80.87101787 400.24698197 -83.1015625 401.9375 C-85.25 403.25 -85.25 403.25 -89.25 403.25 C-89.58 404.24 -89.91 405.23 -90.25 406.25 C-92.82919656 408.41242779 -95.72582368 410.13107095 -98.5625 411.9375 C-99.33529297 412.44861328 -100.10808594 412.95972656 -100.90429688 413.48632812 C-101.65388672 413.96908203 -102.40347656 414.45183594 -103.17578125 414.94921875 C-103.86067627 415.39096436 -104.54557129 415.83270996 -105.2512207 416.2878418 C-107.25 417.25 -107.25 417.25 -111.25 417.25 C-111.58 418.24 -111.91 419.23 -112.25 420.25 C-114.82919656 422.41242779 -117.72582368 424.13107095 -120.5625 425.9375 C-121.33529297 426.44861328 -122.10808594 426.95972656 -122.90429688 427.48632812 C-123.65388672 427.96908203 -124.40347656 428.45183594 -125.17578125 428.94921875 C-125.86067627 429.39096436 -126.54557129 429.83270996 -127.2512207 430.2878418 C-129.25 431.25 -129.25 431.25 -133.25 431.25 C-133.58 432.24 -133.91 433.23 -134.25 434.25 C-136.82919656 436.41242779 -139.72582368 438.13107095 -142.5625 439.9375 C-143.33529297 440.44861328 -144.10808594 440.95972656 -144.90429688 441.48632812 C-145.65388672 441.96908203 -146.40347656 442.45183594 -147.17578125 442.94921875 C-147.86067627 443.39096436 -148.54557129 443.83270996 -149.2512207 444.2878418 C-151.25 445.25 -151.25 445.25 -155.25 445.25 C-155.58 446.24 -155.91 447.23 -156.25 448.25 C-158.82919656 450.41242779 -161.72582368 452.13107095 -164.5625 453.9375 C-165.33529297 454.44861328 -166.10808594 454.95972656 -166.90429688 455.48632812 C-167.65388672 455.96908203 -168.40347656 456.45183594 -169.17578125 456.94921875 C-169.86067627 457.39096436 -170.54557129 457.83270996 -171.2512207 458.2878418 C-173.25 459.25 -173.25 459.25 -177.25 459.25 C-177.58 460.24 -177.91 461.23 -178.25 462.25 C-180.82919656 464.41242779 -183.72582368 466.13107095 -186.5625 467.9375 C-187.33529297 468.44861328 -188.10808594 468.95972656 -188.90429688 469.48632812 C-189.65388672 469.96908203 -190.40347656 470.45183594 -191.17578125 470.94921875 C-191.86067627 471.39096436 -192.54557129 471.83270996 -193.2512207 472.2878418 C-195.25 473.25 -195.25 473.25 -199.25 473.25 C-199.58 474.24 -199.91 475.23 -200.25 476.25 C-210.42860009 484.76745255 -210.42860009 484.76745255 -216.75 484.875 C-221.92164179 483.95149254 -221.92164179 483.95149254 -224.25 482.25 C-226.65503353 478.6424497 -226.4896541 476.90163611 -226.4375 472.625 C-226.43105469 471.45710938 -226.42460937 470.28921875 -226.41796875 469.0859375 C-226.25 466.25 -226.25 466.25 -225.25 465.25 C-224.88239269 462.92182036 -224.54758419 460.5881615 -224.25 458.25 C-223.59 458.25 -222.93 458.25 -222.25 458.25 C-222.30800781 456.99703125 -222.30800781 456.99703125 -222.3671875 455.71875 C-222.23693205 451.86318878 -221.40063101 448.43892668 -220.375 444.75 C-218.61348245 438.13328518 -217.46542369 431.65262445 -216.64453125 424.84765625 C-216.25 422.25 -216.25 422.25 -215.25 421.25 C-214.88239269 418.92182036 -214.54758419 416.5881615 -214.25 414.25 C-213.59 414.25 -212.93 414.25 -212.25 414.25 C-212.30800781 412.99703125 -212.30800781 412.99703125 -212.3671875 411.71875 C-212.23693205 407.86318878 -211.40063101 404.43892668 -210.375 400.75 C-208.61348245 394.13328518 -207.46542369 387.65262445 -206.64453125 380.84765625 C-206.25 378.25 -206.25 378.25 -205.25 377.25 C-204.88239269 374.92182036 -204.54758419 372.5881615 -204.25 370.25 C-203.59 370.25 -202.93 370.25 -202.25 370.25 C-202.270625 369.30125 -202.29125 368.3525 -202.3125 367.375 C-202.25 364.25 -202.25 364.25 -201.25 362.25 C-201.05548028 360.88657245 -200.90702059 359.51636276 -200.78515625 358.14453125 C-200.66817383 356.91573242 -200.66817383 356.91573242 -200.54882812 355.66210938 C-200.39306896 353.94875852 -200.23937367 352.23521859 -200.08789062 350.52148438 C-199.60882695 345.53221147 -198.79328829 341.02192488 -197.25 336.25 C-198.08144531 336.00378906 -198.91289062 335.75757813 -199.76953125 335.50390625 C-203.73690586 334.07458274 -207.25126045 332.21462868 -210.9375 330.1875 C-218.1959014 326.2540501 -225.572213 322.66317711 -233.0925293 319.25756836 C-233.853479 318.90702393 -234.61442871 318.55647949 -235.3984375 318.1953125 C-236.07052246 317.89125488 -236.74260742 317.58719727 -237.43505859 317.27392578 C-239.39899694 316.16594119 -240.68414007 314.8572675 -242.25 313.25 C-244.57520233 312.21455338 -244.57520233 312.21455338 -247.125 311.375 C-251.65485523 309.66225182 -254.15857395 307.93976657 -257.25 304.25 C-257.58 303.92 -257.91 303.59 -258.25 303.25 C-258.37548989 301.29469236 -258.42575363 299.33429521 -258.4375 297.375 C-258.45167969 296.30507813 -258.46585937 295.23515625 -258.48046875 294.1328125 C-258.25 291.25 -258.25 291.25 -256.25 288.25 C-255.59 288.25 -254.93 288.25 -254.25 288.25 C-253.97470459 287.66009277 -253.69940918 287.07018555 -253.41577148 286.46240234 C-252.30173756 284.3481876 -251.11807816 282.68683658 -249.59765625 280.8515625 C-249.07429688 280.21476562 -248.5509375 279.57796875 -248.01171875 278.921875 C-247.45097656 278.24640625 -246.89023438 277.5709375 -246.3125 276.875 C-245.12535508 275.43046525 -243.93917258 273.98513907 -242.75390625 272.5390625 C-242.16109863 271.8162207 -241.56829102 271.09337891 -240.95751953 270.34863281 C-238.51500451 267.34665125 -236.12878154 264.30256345 -233.75 261.25 C-228.61913357 254.67774017 -223.36843528 248.20641268 -218.09765625 241.74609375 C-217.61063232 241.14603516 -217.1236084 240.54597656 -216.62182617 239.92773438 C-215.38617929 238.41654637 -214.12800858 236.92384292 -212.8671875 235.43359375 C-211.00242117 233.3845111 -211.00242117 233.3845111 -211.3125 230.875 C-213.54962627 224.61104645 -215.92891046 220.21925297 -220.25 215.25 C-222.4660374 211.78598364 -224.24970903 208.21691004 -226 204.5 C-228.41461788 199.60452785 -231.13558336 195.46237296 -234.63671875 191.28515625 C-237.75855581 187.34695502 -239.86772036 183.02809947 -242 178.5 C-244.43983553 173.55340078 -247.22623059 169.39987258 -250.71484375 165.14453125 C-252.48012247 162.96600662 -253.88939066 160.6990968 -255.25 158.25 C-255.806875 157.528125 -256.36375 156.80625 -256.9375 156.0625 C-258.91074744 151.83411263 -259.0785886 147.8298352 -258.25 143.25 C-255.875 140.25 -255.875 140.25 -253.25 138.25 C-252.26 137.26 -252.26 137.26 -251.25 136.25 C-245.82083467 134.3196301 -240.27039472 133.57953158 -234.58203125 132.75390625 C-231.59766955 132.3025784 -228.649212 131.7661268 -225.6875 131.1875 C-221.92804153 130.48124335 -218.25374937 130.06489745 -214.4375 129.8125 C-207.5487495 129.31279789 -200.97338309 127.76993436 -194.25 126.25 C-192.33658649 125.83872894 -190.42003984 125.4416334 -188.5 125.0625 C-187.72140625 124.90394531 -186.9428125 124.74539062 -186.140625 124.58203125 C-181.84637988 124.08877336 -177.56749769 124.18842672 -173.25 124.25 C-173.23018066 123.23502441 -173.21036133 122.22004883 -173.18994141 121.17431641 C-172.79774301 101.70081974 -172.37556566 82.27255649 -170.50292969 62.87353516 C-170.34029677 61.18661105 -170.18656005 59.49879286 -170.04394531 57.81005859 C-168.87466633 44.03096638 -168.87466633 44.03096638 -163.25 39.25 C-154.75705562 35.00352781 -142.67694596 39.64986426 -134.25 42.25 C-131.25 43.25 -131.25 43.25 -130.25 45.25 C-128.22536745 45.90213292 -128.22536745 45.90213292 -126.25 46.25 C-126.25 46.91 -126.25 47.57 -126.25 48.25 C-125.37214844 48.20101562 -124.49429688 48.15203125 -123.58984375 48.1015625 C-120.00132741 48.26105211 -117.99698652 49.02582389 -114.8125 50.625 C-110.627265 52.63800705 -106.75287541 54.147255 -102.25 55.25 C-101.445625 55.45625 -100.64125 55.6625 -99.8125 55.875 C-99.0390625 56.060625 -99.0390625 56.060625 -98.25 56.25 C-98.25 56.91 -98.25 57.57 -98.25 58.25 C-97.37214844 58.20101562 -96.49429688 58.15203125 -95.58984375 58.1015625 C-92.00132741 58.26105211 -89.99698652 59.02582389 -86.8125 60.625 C-82.66258467 62.62144576 -78.71280388 64.07114614 -74.25 65.25 C-71.5631784 66.20277362 -68.90994887 67.22335307 -66.25 68.25 C-65.88648438 67.40888672 -65.88648438 67.40888672 -65.515625 66.55078125 C-63.9964899 63.78914367 -62.14104743 61.74968558 -60 59.4375 C-59.19820312 58.5609375 -58.39640625 57.684375 -57.5703125 56.78125 C-56.80460938 55.9459375 -56.03890625 55.110625 -55.25 54.25 C-54.11729104 52.98603292 -52.99105494 51.71619611 -51.875 50.4375 C-51.43414062 49.93605469 -50.99328125 49.43460938 -50.5390625 48.91796875 C-49.15428502 47.20889329 -49.15428502 47.20889329 -47.95703125 44.95703125 C-45.77478818 41.49640322 -43.1262563 38.70427276 -40.3125 35.75 C-39.26011774 34.63692821 -38.20930721 33.52236805 -37.16015625 32.40625 C-36.6614502 31.87644531 -36.16274414 31.34664062 -35.64892578 30.80078125 C-34.36228248 29.37447091 -33.17328533 27.86165387 -31.99609375 26.34375 C-31.41988281 25.6528125 -30.84367188 24.961875 -30.25 24.25 C-29.59 24.25 -28.93 24.25 -28.25 24.25 C-28.02570313 23.70988281 -27.80140625 23.16976562 -27.5703125 22.61328125 C-25.83231209 19.50236335 -23.53927957 17.02784632 -21.125 14.4375 C-20.63725098 13.90922607 -20.14950195 13.38095215 -19.64697266 12.83666992 C-15.75684765 8.67577794 -11.64192666 4.8786239 -7.25 1.25 C-5.39709648 -0.60290352 -2.48375369 0.03341373 0 0 Z " fill="#752ED7" transform="translate(371.25,65.75)"/>
<path d="M0 0 C0.680625 -0.01675781 1.36125 -0.03351563 2.0625 -0.05078125 C4.62135069 0.42900325 5.3896893 1.28941178 7 3.3125 C7.34057617 5.3972168 7.34057617 5.3972168 7.29296875 7.76171875 C7.28330078 8.60927734 7.27363281 9.45683594 7.26367188 10.33007812 C7.23853516 11.21115234 7.21339844 12.09222656 7.1875 13 C7.16719727 14.33901367 7.16719727 14.33901367 7.14648438 15.70507812 C7.11114079 17.90816166 7.06180493 20.11002582 7 22.3125 C6.34 22.3125 5.68 22.3125 5 22.3125 C4.93941406 23.40046875 4.87882812 24.4884375 4.81640625 25.609375 C3.38412718 50.92837282 3.38412718 50.92837282 2 52.3125 C1.72847347 53.64025172 1.51003132 54.97898457 1.31640625 56.3203125 C1.19330078 57.14273438 1.07019531 57.96515625 0.94335938 58.8125 C0.69286407 60.53899071 0.44285037 62.26555138 0.19335938 63.9921875 C-0.54379627 68.91165107 -1.6210497 73.52464252 -3 78.3125 C-3.23631608 80.67255966 -3.23631608 80.67255966 -3.125 82.75 C-3.08375 83.925625 -3.0425 85.10125 -3 86.3125 C1.71362932 87.0628854 6.26591509 87.45563111 11.03686523 87.51782227 C11.70113022 87.52772186 12.3653952 87.53762146 13.04978943 87.54782104 C15.21935611 87.57910744 17.38894459 87.60406164 19.55859375 87.62890625 C21.07317129 87.64950426 22.58774345 87.67050143 24.10231018 87.69187927 C28.0691184 87.74680616 32.03597594 87.79634373 36.00286865 87.84472656 C40.05859718 87.89515754 44.11425497 87.95073034 48.16992188 88.00585938 C56.11322126 88.11308099 64.05658022 88.21460431 72 88.3125 C72 88.9725 72 89.6325 72 90.3125 C73.32 90.9725 74.64 91.6325 76 92.3125 C76.46469477 98.1211846 75.53278104 100.7294327 72 105.3125 C67.91883623 110.66571482 64.87764697 116.22658279 62 122.3125 C61.34 122.3125 60.68 122.3125 60 122.3125 C59.8453125 123.1478125 59.8453125 123.1478125 59.6875 124 C58.48464182 128.04597753 56.13127284 131.13631804 53.625 134.5 C50.49515744 138.79996607 48.26722436 143.51756166 46 148.3125 C45.01 148.3125 44.02 148.3125 43 148.3125 C42.79375 149.09625 42.5875 149.88 42.375 150.6875 C40.85827145 154.68614799 38.84018306 158.00730232 36.59765625 161.6328125 C34.15077612 165.73687062 32.06946938 170.00873625 30 174.3125 C29.01 174.3125 28.02 174.3125 27 174.3125 C26.79375 175.09625 26.5875 175.88 26.375 176.6875 C24.85827145 180.68614799 22.84018306 184.00730232 20.59765625 187.6328125 C18.15077612 191.73687062 16.06946938 196.00873625 14 200.3125 C13.01 200.3125 12.02 200.3125 11 200.3125 C10.79375 201.09625 10.5875 201.88 10.375 202.6875 C8.87179942 206.65048334 6.88252257 209.91989646 4.65234375 213.5078125 C2.30307332 217.49546301 0.35451931 221.65380307 -1.60546875 225.84375 C-3 228.3125 -3 228.3125 -6 230.3125 C-9.502304 230.75960264 -11.33244416 230.71654695 -14.375 228.875 C-16.74196064 225.14248515 -16.50807587 221.62698031 -16 217.3125 C-15.67 216.6525 -15.34 215.9925 -15 215.3125 C-14.79670732 213.48286589 -14.63527804 211.64841632 -14.5 209.8125 C-14.11111111 204.53472222 -14.11111111 204.53472222 -13 202.3125 C-12.79581065 200.31598191 -12.63477704 198.31490179 -12.5 196.3125 C-12.11111111 190.53472222 -12.11111111 190.53472222 -11 188.3125 C-10.77377919 186.60886178 -10.59111527 184.89921299 -10.4375 183.1875 C-10.31181641 181.82238281 -10.31181641 181.82238281 -10.18359375 180.4296875 C-10.12300781 179.73101562 -10.06242187 179.03234375 -10 178.3125 C-9.34 178.3125 -8.68 178.3125 -8 178.3125 C-8 172.3725 -8 166.4325 -8 160.3125 C-7.34 160.3125 -6.68 160.3125 -6 160.3125 C-6 155.6925 -6 151.0725 -6 146.3125 C-9.66948473 145.39512882 -12.44174405 145.18249609 -16.18969727 145.1706543 C-17.44101944 145.16361984 -18.69234161 145.15658539 -19.98158264 145.14933777 C-20.97999019 145.14661393 -20.97999019 145.14661393 -21.99856758 145.14383507 C-24.08751974 145.13664609 -26.17624021 145.12096422 -28.26512146 145.10249329 C-34.20235131 145.05011941 -40.13944805 145.00200592 -46.0769043 144.98657227 C-49.71276377 144.97650295 -53.34803047 144.9472153 -56.98365593 144.90525246 C-58.36830098 144.89293096 -59.75302966 144.88782332 -61.13772774 144.89005089 C-63.07178103 144.89239797 -65.00581133 144.86807997 -66.93969727 144.8425293 C-68.04015884 144.83666306 -69.14062042 144.83079681 -70.27442932 144.82475281 C-73 144.3125 -73 144.3125 -74.84751892 142.52156067 C-76.60284985 139.15696529 -76.77793456 135.96172028 -76 132.3125 C-73.625 129.1875 -73.625 129.1875 -71 126.3125 C-70.30741771 124.32132592 -69.64252365 122.3203864 -69 120.3125 C-67.53969927 117.50383797 -66.06168229 114.72289413 -64 112.3125 C-63.01 112.3125 -62.02 112.3125 -61 112.3125 C-61 110.9925 -61 109.6725 -61 108.3125 C-60.34 108.3125 -59.68 108.3125 -59 108.3125 C-58.9071875 106.58 -58.9071875 106.58 -58.8125 104.8125 C-58.29891588 100.48919488 -56.65069375 97.68149934 -54.15625 94.171875 C-52.94110775 92.21779489 -52.43733546 90.55881395 -52 88.3125 C-51.34 88.3125 -50.68 88.3125 -50 88.3125 C-49.87625 87.343125 -49.7525 86.37375 -49.625 85.375 C-49.41875 84.364375 -49.2125 83.35375 -49 82.3125 C-48.01 81.8175 -48.01 81.8175 -47 81.3125 C-46.34123072 79.75225696 -45.68814932 78.18944546 -45.05859375 76.6171875 C-43.20889247 72.59016258 -40.82457869 68.86386455 -38.5234375 65.08203125 C-37.23212109 62.73448423 -36.46121639 60.92398201 -36 58.3125 C-35.34 58.3125 -34.68 58.3125 -34 58.3125 C-33.89558594 57.44238281 -33.79117188 56.57226562 -33.68359375 55.67578125 C-32.96419198 52.13632456 -31.82013801 49.64140192 -30.0625 46.5 C-29.53785156 45.54480469 -29.01320313 44.58960938 -28.47265625 43.60546875 C-27 41.3125 -27 41.3125 -25 40.3125 C-24.1812219 38.54299138 -24.1812219 38.54299138 -23.4375 36.3125 C-21.17611356 30.34830905 -18.17655859 24.85641834 -15.08569336 19.29101562 C-13.09245645 15.64269145 -11.48683118 12.51245034 -11 8.3125 C-10.01 8.3125 -9.02 8.3125 -8 8.3125 C-7.896875 7.36375 -7.79375 6.415 -7.6875 5.4375 C-6.67879415 0.85247341 -4.365681 0.02480501 0 0 Z " fill="#FDFDFE" transform="translate(329,189.6875)"/>
<path d="M0 0 C0.66 0 1.32 0 2 0 C2.54527344 1.17433594 3.09054687 2.34867187 3.65234375 3.55859375 C7.76010894 12.34832787 12.00055661 21.01775271 16.60961914 29.55541992 C19.96602731 35.82144881 23.01078948 42.21901075 25.99414062 48.66992188 C27.43347808 51.76860601 28.84929745 54.75339582 30.6328125 57.671875 C32.20728574 60.352978 33.10248444 63.03129468 34 66 C36.54173977 66.02716824 39.08318415 66.04691969 41.625 66.0625 C42.69427734 66.07506836 42.69427734 66.07506836 43.78515625 66.08789062 C44.83896484 66.09272461 44.83896484 66.09272461 45.9140625 66.09765625 C46.5529541 66.10289307 47.1918457 66.10812988 47.85009766 66.11352539 C50.12745795 66.03523445 50.12745795 66.03523445 52.84912109 65.51147461 C56.09905672 64.98392036 59.20998516 64.80907167 62.5 64.71875 C63.716875 64.68136719 64.93375 64.64398438 66.1875 64.60546875 C68.72916667 64.53515625 71.27083333 64.46484375 73.8125 64.39453125 C75.029375 64.35714844 76.24625 64.31976563 77.5 64.28125 C78.6034375 64.25095703 79.706875 64.22066406 80.84375 64.18945312 C83.95942274 64.00243564 86.92607347 63.52455458 90 63 C91.43342807 62.92740753 92.86946494 62.89130358 94.3046875 62.90234375 C95.05234375 62.90556641 95.8 62.90878906 96.5703125 62.91210938 C97.33085937 62.92048828 98.09140625 62.92886719 98.875 62.9375 C99.65875 62.94201172 100.4425 62.94652344 101.25 62.95117188 C103.16670014 62.96285907 105.08336048 62.98079092 107 63 C107.33 63.66 107.66 64.32 108 65 C106.80503906 64.98259766 106.80503906 64.98259766 105.5859375 64.96484375 C104.52632813 64.95582031 103.46671875 64.94679688 102.375 64.9375 C101.33085937 64.92589844 100.28671875 64.91429687 99.2109375 64.90234375 C96.03800823 64.99884403 93.12792479 65.4786792 90 66 C86.2160814 66.29358762 82.4239699 66.4365558 78.6328125 66.60546875 C77.48425781 66.66154297 77.48425781 66.66154297 76.3125 66.71875 C75.62800781 66.74904297 74.94351563 66.77933594 74.23828125 66.81054688 C71.87888157 66.97653783 71.87888157 66.97653783 69.09521484 67.51147461 C66.05551026 67.99123868 63.23794378 68.11418249 60.1640625 68.09765625 C59.10058594 68.09443359 58.03710938 68.09121094 56.94140625 68.08789062 C55.84699219 68.07951172 54.75257813 68.07113281 53.625 68.0625 C52.50738281 68.05798828 51.38976562 68.05347656 50.23828125 68.04882812 C47.49213196 68.03709244 44.74609414 68.02067363 42 68 C42 68.66 42 69.32 42 70 C39.03 70 36.06 70 33 70 C32.45472656 68.82566406 31.90945313 67.65132813 31.34765625 66.44140625 C27.2384769 57.64864614 22.99549382 48.97696696 18.38598633 40.43579102 C15.09338954 34.28755351 12.10024474 28.01506491 9.18164062 21.68164062 C7.00279798 16.98466088 4.6356003 12.47240291 2.02368164 8.00024414 C0.68789159 5.39014925 0.2237694 2.90900214 0 0 Z " fill="#9E69E3" transform="translate(383,73)"/>
<path d="M0 0 C3 1 3 1 4 3 C6.02463255 3.65213292 6.02463255 3.65213292 8 4 C8 4.66 8 5.32 8 6 C8.86625 5.938125 9.7325 5.87625 10.625 5.8125 C14.44199033 6.02455502 16.71077536 7.12044307 20 9 C17.13822943 10.43088528 15.06624227 9.59991697 12 9 C12 8.34 12 7.68 12 7 C11.278125 7.061875 10.55625 7.12375 9.8125 7.1875 C6.41000417 6.96066694 4.87926585 5.78240267 2 4 C-0.32206525 3.29508733 -2.65593068 2.62787571 -5 2 C-6.2684375 1.4740625 -6.2684375 1.4740625 -7.5625 0.9375 C-10.35370604 -0.13604079 -13.04506751 -0.58768384 -16 -1 C-16 -1.66 -16 -2.32 -16 -3 C-17.93956814 -2.744398 -19.87665989 -2.46995354 -21.8125 -2.1875 C-22.89144531 -2.03667969 -23.97039062 -1.88585937 -25.08203125 -1.73046875 C-28.10897164 -0.97272062 -29.19115523 -0.48190329 -31 2 C-32.07916994 5.23750981 -32.18821072 7.75773608 -32.28125 11.1640625 C-32.31863281 12.36804688 -32.35601562 13.57203125 -32.39453125 14.8125 C-32.46505971 17.3619732 -32.53537089 19.91145242 -32.60546875 22.4609375 C-32.64285156 23.66234375 -32.68023437 24.86375 -32.71875 26.1015625 C-32.76418945 27.76179443 -32.76418945 27.76179443 -32.81054688 29.45556641 C-33 32 -33 32 -34 33 C-34.14572736 34.84037134 -34.22727918 36.68590714 -34.28125 38.53125 C-34.31863281 39.65144531 -34.35601562 40.77164063 -34.39453125 41.92578125 C-34.42933594 43.10527344 -34.46414062 44.28476563 -34.5 45.5 C-34.56854901 47.82304966 -34.64123531 50.14598222 -34.71875 52.46875 C-34.76418945 54.02239258 -34.76418945 54.02239258 -34.81054688 55.60742188 C-35 58 -35 58 -36 59 C-36.15740605 60.70563778 -36.25093392 62.41727244 -36.31640625 64.12890625 C-36.35830078 65.16337891 -36.40019531 66.19785156 -36.44335938 67.26367188 C-36.48267578 68.35228516 -36.52199219 69.44089844 -36.5625 70.5625 C-36.60568359 71.65498047 -36.64886719 72.74746094 -36.69335938 73.87304688 C-36.79982068 76.58189564 -36.90183516 79.29083992 -37 82 C-42.34668435 83.6461307 -46.47480648 84.19386644 -52 84 C-48.68629 81.79086 -47.6553979 81.77518447 -43.8125 81.875 C-42.91144531 81.89304687 -42.01039063 81.91109375 -41.08203125 81.9296875 C-40.39496094 81.95289063 -39.70789063 81.97609375 -39 82 C-38.98018066 80.98502441 -38.96036133 79.97004883 -38.93994141 78.92431641 C-38.54774301 59.45081974 -38.12556566 40.02255649 -36.25292969 20.62353516 C-36.09029677 18.93661105 -35.93656005 17.24879286 -35.79394531 15.56005859 C-34.62466633 1.78096638 -34.62466633 1.78096638 -29 -3 C-20.50705562 -7.24647219 -8.42694596 -2.60013574 0 0 Z " fill="#9C68E3" transform="translate(237,108)"/>
<path d="M0 0 C1.27080917 0.24114784 1.27080917 0.24114784 2.56729126 0.48716736 C6.06462272 1.00965437 9.38860866 1.15933134 12.92333984 1.20532227 C13.5874588 1.21522186 14.25157776 1.22512146 14.93582153 1.23532104 C17.11082507 1.26667587 19.28585039 1.29158942 21.4609375 1.31640625 C22.97694435 1.33699831 24.49294576 1.35799535 26.00894165 1.37937927 C29.98398401 1.43436751 33.95907617 1.48387852 37.9342041 1.53222656 C41.99654532 1.58261219 46.05881492 1.63820888 50.12109375 1.69335938 C58.08066846 1.80065625 66.04030341 1.90216348 74 2 C74 2.66 74 3.32 74 4 C75.32 4.66 76.64 5.32 78 6 C78.4589303 11.73662874 77.57654928 14.50376662 74 19 C72.25 20.875 72.25 20.875 71 22 C71.50603992 19.83125748 71.99983813 18.00032373 73 16 C73.66 16 74.32 16 75 16 C75.19412181 14.52168779 75.38012131 13.04230684 75.5625 11.5625 C75.66691406 10.73878906 75.77132812 9.91507812 75.87890625 9.06640625 C75.91886719 8.38449219 75.95882812 7.70257813 76 7 C74.10718442 5.10718442 70.79393283 5.82531744 68.27709961 5.79467773 C67.5746965 5.78477814 66.8722934 5.77487854 66.14860535 5.76467896 C63.81655296 5.73297878 61.48448016 5.70827312 59.15234375 5.68359375 C57.53950965 5.66303156 55.92668104 5.64203529 54.31385803 5.62062073 C50.06090725 5.56532408 45.80790723 5.51594844 41.55487061 5.46777344 C37.21817625 5.41761369 32.88155373 5.36189885 28.54492188 5.30664062 C20.03000859 5.19896625 11.51503535 5.09754205 3 5 C2.67 4.01 2.34 3.02 2 2 C1.34 2 0.68 2 0 2 C0 1.34 0 0.68 0 0 Z " fill="#D3BBF2" transform="translate(327,276)"/>
<path d="M0 0 C5.03592715 0.64459867 9.23302917 2.81610551 13.75 5 C14.58184814 5.39791748 15.41369629 5.79583496 16.27075195 6.20581055 C23.33197233 9.61299154 30.26799338 13.23608405 37.16796875 16.95703125 C40.54809015 18.77951718 43.9751999 20.49224394 47.42700195 22.17456055 C49 23 49 23 50 24 C49.93414936 25.64925924 49.7953925 27.29574522 49.625 28.9375 C49.52445313 29.92363281 49.42390625 30.90976562 49.3203125 31.92578125 C49.21460938 32.94027344 49.10890625 33.95476562 49 35 C48.91492188 35.96292969 48.82984375 36.92585938 48.7421875 37.91796875 C48.66226563 38.81128906 48.58234375 39.70460938 48.5 40.625 C48.39171875 41.85089844 48.39171875 41.85089844 48.28125 43.1015625 C48 45 48 45 47 46 C46.814375 47.7325 46.814375 47.7325 46.625 49.5 C46.28343486 52.53139066 45.68054712 55.14122655 44.625 58 C42.79563494 63.07760351 41.94638577 68.27968844 41.09033203 73.59179688 C40.20824014 78.79175986 40.20824014 78.79175986 38 81 C38.14026283 78.68715544 38.28735558 76.37472409 38.4375 74.0625 C38.51871094 72.77472656 38.59992188 71.48695313 38.68359375 70.16015625 C39 67 39 67 40 66 C40.36760731 63.67182036 40.70241581 61.3381615 41 59 C41.66 59 42.32 59 43 59 C42.979375 58.05125 42.95875 57.1025 42.9375 56.125 C43 53 43 53 44 51 C44.19451972 49.63657245 44.34297941 48.26636276 44.46484375 46.89453125 C44.58182617 45.66573242 44.58182617 45.66573242 44.70117188 44.41210938 C44.85693104 42.69875852 45.01062633 40.98521859 45.16210938 39.27148438 C45.64117305 34.28221147 46.45671171 29.77192488 48 25 C47.16855469 24.75378906 46.33710938 24.50757813 45.48046875 24.25390625 C41.51309414 22.82458274 37.99873955 20.96462868 34.3125 18.9375 C27.0540986 15.0040501 19.677787 11.41317711 12.1574707 8.00756836 C11.396521 7.65702393 10.63557129 7.30647949 9.8515625 6.9453125 C9.17947754 6.64125488 8.50739258 6.33719727 7.81494141 6.02392578 C5.84208993 4.91091272 4.56448657 3.62573546 3 2 C2.01 1.34 1.02 0.68 0 0 Z " fill="#9961E2" transform="translate(126,377)"/>
<path d="M0 0 C2.07142461 1.60351078 2.91295822 2.46720449 3.34057617 5.0847168 C3.32486572 5.86500244 3.30915527 6.64528809 3.29296875 7.44921875 C3.28330078 8.29677734 3.27363281 9.14433594 3.26367188 10.01757812 C3.23853516 10.89865234 3.21339844 11.77972656 3.1875 12.6875 C3.17396484 13.58017578 3.16042969 14.47285156 3.14648438 15.39257812 C3.11114079 17.59566166 3.06180493 19.79752582 3 22 C2.34 22 1.68 22 1 22 C0.93941406 23.08796875 0.87882812 24.1759375 0.81640625 25.296875 C-0.61587282 50.61587282 -0.61587282 50.61587282 -2 52 C-2.29509061 53.40950688 -2.53705963 54.83026105 -2.75390625 56.25390625 C-2.88603516 57.10791016 -3.01816406 57.96191406 -3.15429688 58.84179688 C-3.28900391 59.73962891 -3.42371094 60.63746094 -3.5625 61.5625 C-3.70107422 62.46419922 -3.83964844 63.36589844 -3.98242188 64.29492188 C-4.32528051 66.52941433 -4.66430023 68.7644227 -5 71 C-5.33 71 -5.66 71 -6 71 C-5.67 62.09 -5.34 53.18 -5 44 C-4.34 44 -3.68 44 -3 44 C-3.01160156 43.00097656 -3.02320313 42.00195312 -3.03515625 40.97265625 C-3.04417969 39.68230469 -3.05320312 38.39195312 -3.0625 37.0625 C-3.07410156 35.77472656 -3.08570313 34.48695313 -3.09765625 33.16015625 C-3 30 -3 30 -2 29 C-0.27312574 20.41959352 0.45748899 11.72300602 1 3 C0.01 3 -0.98 3 -2 3 C-2 2.34 -2 1.68 -2 1 C-6.95514502 1.87472593 -6.95514502 1.87472593 -10.4375 5.125 C-10.623125 5.74375 -10.80875 6.3625 -11 7 C-11.33 6.34 -11.66 5.68 -12 5 C-9.79210451 -0.60465779 -5.65076549 -0.93992931 0 0 Z " fill="#C4A5EE" transform="translate(333,190)"/>
<path d="M0 0 C2.29160319 -0.02692484 4.58329546 -0.04636124 6.875 -0.0625 C8.15117187 -0.07410156 9.42734375 -0.08570313 10.7421875 -0.09765625 C14 0 14 0 16 1 C18.33022478 1.20560807 20.66456298 1.36599952 23 1.5 C29.77777778 1.88888889 29.77777778 1.88888889 32 3 C34.33022478 3.20560807 36.66456298 3.36599952 39 3.5 C45.77777778 3.88888889 45.77777778 3.88888889 48 5 C50.33022478 5.20560807 52.66456298 5.36599952 55 5.5 C61.77777778 5.88888889 61.77777778 5.88888889 64 7 C67.5702507 7.23890153 71.13944106 7.38293564 74.71484375 7.5234375 C78 8 78 8 79.94140625 9.5390625 C80.29074219 10.02117187 80.64007813 10.50328125 81 11 C75.0664404 11.14240543 69.54093406 10.61447844 63.6875 9.6875 C55.20557359 8.40774388 46.71528771 7.36186347 38.1875 6.4375 C37.03677002 6.31213867 35.88604004 6.18677734 34.70043945 6.05761719 C32.476911 5.815544 30.25336046 5.57367371 28.02978516 5.33203125 C8.97560976 3.24390244 8.97560976 3.24390244 0 1 C0 0.67 0 0.34 0 0 Z " fill="#9C67E3" transform="translate(423,439)"/>
<path d="M0 0 C0.33 0 0.66 0 1 0 C1.02690844 2.62506802 1.04679404 5.24986173 1.0625 7.875 C1.07087891 8.62136719 1.07925781 9.36773437 1.08789062 10.13671875 C1.11328125 15.7734375 1.11328125 15.7734375 0 18 C-0.26507396 21.65581171 -0.44485799 25.30546633 -0.60546875 28.96679688 C-0.8993079 34.8993079 -0.8993079 34.8993079 -2 36 C-2.16264275 37.74690364 -2.27869612 39.49818649 -2.375 41.25 C-2.69362787 45.70034338 -3.37714565 49.7037861 -4.5625 54 C-6.79480347 62.87503174 -6.24442637 71.92001283 -6 81 C-3.64632287 81.6878236 -3.64632287 81.6878236 -1 82 C2.12474627 80.36526484 2.12474627 80.36526484 2.6875 77.875 C2.790625 77.25625 2.89375 76.6375 3 76 C3.66 76 4.32 76 5 76 C5.12375 75.38125 5.2475 74.7625 5.375 74.125 C6 72 6 72 8 70 C7.35895004 72.91743147 6.43991189 75.44421064 5.125 78.125 C4.79757812 78.80820312 4.47015625 79.49140625 4.1328125 80.1953125 C3 82 3 82 0 84 C-3.502304 84.44710264 -5.33244416 84.40404695 -8.375 82.5625 C-10.74196064 78.82998515 -10.50807587 75.31448031 -10 71 C-9.505 70.01 -9.505 70.01 -9 69 C-8.79670732 67.17036589 -8.63527804 65.33591632 -8.5 63.5 C-8.11111111 58.22222222 -8.11111111 58.22222222 -7 56 C-6.79581065 54.00348191 -6.63477704 52.00240179 -6.5 50 C-6.11111111 44.22222222 -6.11111111 44.22222222 -5 42 C-4.77377919 40.29636178 -4.59111527 38.58671299 -4.4375 36.875 C-4.35371094 35.96492188 -4.26992188 35.05484375 -4.18359375 34.1171875 C-4.12300781 33.41851562 -4.06242187 32.71984375 -4 32 C-3.34 32 -2.68 32 -2 32 C-2 26.06 -2 20.12 -2 14 C-1.34 14 -0.68 14 0 14 C0 9.38 0 4.76 0 0 Z " fill="#DDCBF5" transform="translate(323,336)"/>
<path d="M0 0 C1.32 0.33 2.64 0.66 4 1 C4 5.62 4 10.24 4 15 C3.34 15 2.68 15 2 15 C2 20.94 2 26.88 2 33 C1.34 33 0.68 33 0 33 C0.01160156 33.69867188 0.02320313 34.39734375 0.03515625 35.1171875 C0.04869141 36.48230469 0.04869141 36.48230469 0.0625 37.875 C0.07410156 38.77992188 0.08570313 39.68484375 0.09765625 40.6171875 C0 43 0 43 -1 45 C-1.20418935 46.99651809 -1.36522296 48.99759821 -1.5 51 C-1.88888889 56.77777778 -1.88888889 56.77777778 -3 59 C-3.27420918 61.82043726 -3.4461907 64.64053047 -3.62109375 67.46875 C-4 70 -4 70 -6 72 C-5.86177801 68.85378318 -5.71314916 65.70814434 -5.5625 62.5625 C-5.52318359 61.66466797 -5.48386719 60.76683594 -5.44335938 59.84179688 C-5.40146484 58.98779297 -5.35957031 58.13378906 -5.31640625 57.25390625 C-5.27974854 56.46314697 -5.24309082 55.6723877 -5.20532227 54.85766602 C-5 53 -5 53 -4 52 C-3.76518307 49.81707226 -3.58636677 47.62796826 -3.4375 45.4375 C-3.35371094 44.23996094 -3.26992188 43.04242188 -3.18359375 41.80859375 C-3.12300781 40.88175781 -3.06242187 39.95492187 -3 39 C-2.34 39 -1.68 39 -1 39 C-1.01160156 38.36191406 -1.02320313 37.72382813 -1.03515625 37.06640625 C-1.04417969 36.24011719 -1.05320312 35.41382813 -1.0625 34.5625 C-1.07410156 33.73878906 -1.08570313 32.91507812 -1.09765625 32.06640625 C-1 30 -1 30 0 29 C0.2110218 26.16292912 0.37607813 23.34102354 0.5 20.5 C0.86486486 12.13513514 0.86486486 12.13513514 2 11 C2.07148199 9.64756083 2.08399454 8.29165633 2.0625 6.9375 C2.041875 5.638125 2.02125 4.33875 2 3 C1.34 2.67 0.68 2.34 0 2 C0 1.34 0 0.68 0 0 Z " fill="#935BDF" transform="translate(319,335)"/>
<path d="M0 0 C1.79244141 0.01740234 1.79244141 0.01740234 3.62109375 0.03515625 C5.41740234 0.04869141 5.41740234 0.04869141 7.25 0.0625 C8.17683594 0.07410156 9.10367188 0.08570313 10.05859375 0.09765625 C10.05859375 0.42765625 10.05859375 0.75765625 10.05859375 1.09765625 C9.49873779 1.18329834 8.93888184 1.26894043 8.36206055 1.35717773 C5.82298167 1.74713686 3.28454007 2.14110141 0.74609375 2.53515625 C-0.57551758 2.7372168 -0.57551758 2.7372168 -1.92382812 2.94335938 C-3.19516602 3.14155273 -3.19516602 3.14155273 -4.4921875 3.34375 C-5.27247314 3.46419678 -6.05275879 3.58464355 -6.85668945 3.70874023 C-9.12420422 4.08254236 -9.12420422 4.08254236 -11.94140625 5.09765625 C-14.46191402 5.43811076 -16.97735612 5.74863725 -19.50390625 6.03515625 C-24.8753497 6.6732288 -30.14216563 7.45474768 -35.43359375 8.59375 C-39.58471956 9.42785472 -43.77296354 10.01558369 -47.9609375 10.6328125 C-50.64037613 11.0507066 -53.28729647 11.54328581 -55.94140625 12.09765625 C-55.94140625 11.43765625 -55.94140625 10.77765625 -55.94140625 10.09765625 C-54.62140625 10.09765625 -53.30140625 10.09765625 -51.94140625 10.09765625 C-51.94140625 9.43765625 -51.94140625 8.77765625 -51.94140625 8.09765625 C-51.15894531 8.03707031 -50.37648438 7.97648438 -49.5703125 7.9140625 C-48.55839844 7.83027344 -47.54648438 7.74648437 -46.50390625 7.66015625 C-45.49457031 7.57894531 -44.48523438 7.49773437 -43.4453125 7.4140625 C-41.00499846 7.36554157 -41.00499846 7.36554157 -39.94140625 6.09765625 C-37.36242931 5.77528413 -34.78208804 5.58498321 -32.19140625 5.37890625 C-29.97475273 5.3356496 -29.97475273 5.3356496 -28.94140625 4.09765625 C-25.31967883 3.77170078 -21.69685415 3.58385089 -18.06640625 3.37890625 C-15.07642615 3.44630177 -15.07642615 3.44630177 -13.94140625 2.09765625 C-11.36242931 1.77528413 -8.78208804 1.58498321 -6.19140625 1.37890625 C-3.21882727 1.00733388 -3.23520662 0.10741058 0 0 Z " fill="#D2B7F3" transform="translate(174.94140625,190.90234375)"/>
<path d="M0 0 C3 1 3 1 4 3 C6.02463255 3.65213292 6.02463255 3.65213292 8 4 C8 4.66 8 5.32 8 6 C8.86625 5.938125 9.7325 5.87625 10.625 5.8125 C14.44199033 6.02455502 16.71077536 7.12044307 20 9 C17.13822943 10.43088528 15.06624227 9.59991697 12 9 C12 8.34 12 7.68 12 7 C11.278125 7.061875 10.55625 7.12375 9.8125 7.1875 C6.41000417 6.96066694 4.87926585 5.78240267 2 4 C-0.32206525 3.29508733 -2.65593068 2.62787571 -5 2 C-5.845625 1.649375 -6.69125 1.29875 -7.5625 0.9375 C-10.35370604 -0.13604079 -13.04506751 -0.58768384 -16 -1 C-16 -1.66 -16 -2.32 -16 -3 C-17.93956814 -2.744398 -19.87665989 -2.46995354 -21.8125 -2.1875 C-22.89144531 -2.03667969 -23.97039062 -1.88585937 -25.08203125 -1.73046875 C-28.11103363 -0.97220443 -29.16726596 -0.459722 -31 2 C-32.19027984 4.59915538 -32.19027984 4.59915538 -33 7 C-33.8125 5.375 -33.8125 5.375 -34 3 C-25.41003667 -8.84021973 -12.1009552 -3.73375198 0 0 Z " fill="#A776E6" transform="translate(237,108)"/>
<path d="M0 0 C0.69590744 0.32342377 1.39181488 0.64684753 2.10881042 0.98007202 C5.33016669 2.11647325 7.84818402 2.27716722 11.2590332 2.31884766 C13.12039665 2.34865219 13.12039665 2.34865219 15.0193634 2.37905884 C16.36316754 2.39093329 17.70697357 2.40259626 19.05078125 2.4140625 C20.43370201 2.43278498 21.81661147 2.4523592 23.19950867 2.4727478 C26.82766038 2.52396118 30.45584909 2.56364431 34.08416748 2.60089111 C37.79122996 2.64099875 41.49813999 2.69206015 45.20507812 2.7421875 C52.46994729 2.83881882 59.73489055 2.92326413 67 3 C67.495 4.485 67.495 4.485 68 6 C67.01 5.67 66.02 5.34 65 5 C62.96095909 4.88279191 60.91842818 4.82321157 58.8762207 4.79467773 C57.61513992 4.77473251 56.35405914 4.75478729 55.05476379 4.73423767 C53.67843753 4.71725467 52.30210998 4.70037581 50.92578125 4.68359375 C49.51758725 4.66301803 48.10939935 4.6420214 46.70121765 4.62062073 C42.99739519 4.56546378 39.29351759 4.51602646 35.58959961 4.46777344 C31.80903218 4.41751179 28.02854471 4.36185008 24.24804688 4.30664062 C16.83209898 4.19913708 9.41608455 4.09767486 2 4 C1.34 2.68 0.68 1.36 0 0 Z " fill="#DAC7F4" transform="translate(254,330)"/>
<path d="M0 0 C0.33 0 0.66 0 1 0 C1.09765625 6.15234375 1.09765625 6.15234375 1 8 C0.67 8.33 0.34 8.66 0 9 C-0.12375 10.155 -0.2475 11.31 -0.375 12.5 C-0.71656514 15.53139066 -1.31945288 18.14122655 -2.375 21 C-4.20436506 26.07760351 -5.05361423 31.27968844 -5.90966797 36.59179688 C-6.79175986 41.79175986 -6.79175986 41.79175986 -9 44 C-8.85973717 41.68715544 -8.71264442 39.37472409 -8.5625 37.0625 C-8.48128906 35.77472656 -8.40007812 34.48695313 -8.31640625 33.16015625 C-8 30 -8 30 -7 29 C-6.63239269 26.67182036 -6.29758419 24.3381615 -6 22 C-5.34 22 -4.68 22 -4 22 C-4.020625 21.05125 -4.04125 20.1025 -4.0625 19.125 C-4 16 -4 16 -3 14 C-2.72620559 11.50542871 -2.55450855 9.01107933 -2.37890625 6.5078125 C-1.99386903 3.95942185 -1.27586046 2.2211336 0 0 Z " fill="#9861E2" transform="translate(173,414)"/>
<path d="M0 0 C0.93523731 3.00249359 1.00926039 4.99425416 0.29296875 8.046875 C0.11830078 8.81 -0.05636719 9.573125 -0.23632812 10.359375 C-0.42646484 11.14828125 -0.61660156 11.9371875 -0.8125 12.75 C-0.99103516 13.5234375 -1.16957031 14.296875 -1.35351562 15.09375 C-2.51150158 20.07685203 -3.74858836 25.03965342 -5 30 C-5.66 30 -6.32 30 -7 30 C-7 32.31 -7 34.62 -7 37 C-7.99 37.495 -7.99 37.495 -9 38 C-8.67 34.04 -8.34 30.08 -8 26 C-7.34 26 -6.68 26 -6 26 C-6 23.36 -6 20.72 -6 18 C-5.34 18 -4.68 18 -4 18 C-4.020625 16.865625 -4.04125 15.73125 -4.0625 14.5625 C-4 11 -4 11 -3 10 C-2.855625 8.88625 -2.71125 7.7725 -2.5625 6.625 C-2 3 -2 3 0 0 Z " fill="#D4B9F4" transform="translate(154,494)"/>
<path d="M0 0 C0.93523731 3.00249359 1.00926039 4.99425416 0.29296875 8.046875 C0.11830078 8.81 -0.05636719 9.573125 -0.23632812 10.359375 C-0.42646484 11.14828125 -0.61660156 11.9371875 -0.8125 12.75 C-0.99103516 13.5234375 -1.16957031 14.296875 -1.35351562 15.09375 C-2.51150158 20.07685203 -3.74858836 25.03965342 -5 30 C-5.66 30 -6.32 30 -7 30 C-7 32.31 -7 34.62 -7 37 C-7.99 37.495 -7.99 37.495 -9 38 C-8.67 34.04 -8.34 30.08 -8 26 C-7.34 26 -6.68 26 -6 26 C-6 23.36 -6 20.72 -6 18 C-5.34 18 -4.68 18 -4 18 C-4.020625 16.865625 -4.04125 15.73125 -4.0625 14.5625 C-4 11 -4 11 -3 10 C-2.855625 8.88625 -2.71125 7.7725 -2.5625 6.625 C-2 3 -2 3 0 0 Z " fill="#D4B9F4" transform="translate(164,450)"/>
<path d="M0 0 C-4.00996859 2.07412169 -7.15394977 3.12820363 -11.6875 3.0625 C-12.89986328 3.04896484 -12.89986328 3.04896484 -14.13671875 3.03515625 C-15.05904297 3.01775391 -15.05904297 3.01775391 -16 3 C-16 3.66 -16 4.32 -16 5 C-20.29 5 -24.58 5 -29 5 C-29 5.66 -29 6.32 -29 7 C-30.43725871 7.16873478 -31.87481838 7.33490737 -33.3125 7.5 C-34.11300781 7.5928125 -34.91351563 7.685625 -35.73828125 7.78125 C-38 8 -38 8 -41 8 C-36.42191045 3.42191045 -28.47424042 3.39409218 -22.34765625 2.5078125 C-19.27307915 2.04142391 -16.23775853 1.47741545 -13.1875 0.875 C-8.70090785 0.03294165 -4.55737086 -0.17197626 0 0 Z " fill="#8F54DF" transform="translate(159,196)"/>
<path d="M0 0 C0.33 0 0.66 0 1 0 C1.33 5.28 1.66 10.56 2 16 C3.65 16.33 5.3 16.66 7 17 C10.12474627 15.36526484 10.12474627 15.36526484 10.6875 12.875 C10.790625 12.25625 10.89375 11.6375 11 11 C11.66 11 12.32 11 13 11 C13.12375 10.38125 13.2475 9.7625 13.375 9.125 C14 7 14 7 16 5 C15.35895004 7.91743147 14.43991189 10.44421064 13.125 13.125 C12.79757812 13.80820312 12.47015625 14.49140625 12.1328125 15.1953125 C11 17 11 17 8 19 C4.497696 19.44710264 2.66755584 19.40404695 -0.375 17.5625 C-2.78478442 13.76245534 -2.52990713 10.38308901 -2 6 C-1 2.4375 -1 2.4375 0 0 Z " fill="#D2B9F1" transform="translate(315,401)"/>
<path d="M0 0 C0.33 0 0.66 0 1 0 C1.09765625 6.15234375 1.09765625 6.15234375 1 8 C0.67 8.33 0.34 8.66 0 9 C-0.12375 10.155 -0.2475 11.31 -0.375 12.5 C-0.71656514 15.53139066 -1.31945288 18.14122655 -2.375 21 C-4.20436506 26.07760351 -5.05361423 31.27968844 -5.90966797 36.59179688 C-6.79175986 41.79175986 -6.79175986 41.79175986 -9 44 C-8.85973717 41.68715544 -8.71264442 39.37472409 -8.5625 37.0625 C-8.48128906 35.77472656 -8.40007812 34.48695313 -8.31640625 33.16015625 C-8 30 -8 30 -7 29 C-6.63239269 26.67182036 -6.29758419 24.3381615 -6 22 C-5.34 22 -4.68 22 -4 22 C-4.061875 20.77410156 -4.061875 20.77410156 -4.125 19.5234375 C-3.97643548 15.33577497 -3.078644 11.65533874 -2 7.625 C-1.80921875 6.88894531 -1.6184375 6.15289062 -1.421875 5.39453125 C-0.95437696 3.59466378 -0.47808424 1.79708452 0 0 Z " fill="#9157DF" transform="translate(163,458)"/>
<path d="M0 0 C0.33 0 0.66 0 1 0 C1.09765625 6.15234375 1.09765625 6.15234375 1 8 C0.67 8.33 0.34 8.66 0 9 C-0.12375 10.155 -0.2475 11.31 -0.375 12.5 C-0.82171905 16.47792676 -1.9169563 19.94986776 -3.234375 23.71484375 C-5.52896616 30.56349594 -6.22878736 36.79319819 -6 44 C-6.66 43.67 -7.32 43.34 -8 43 C-8.02685938 40.85423363 -8.04633088 38.70837355 -8.0625 36.5625 C-8.07410156 35.36753906 -8.08570313 34.17257812 -8.09765625 32.94140625 C-8 30 -8 30 -7 29 C-6.63239269 26.67182036 -6.29758419 24.3381615 -6 22 C-5.34 22 -4.68 22 -4 22 C-4.061875 20.77410156 -4.061875 20.77410156 -4.125 19.5234375 C-3.97643548 15.33577497 -3.078644 11.65533874 -2 7.625 C-1.80921875 6.88894531 -1.6184375 6.15289062 -1.421875 5.39453125 C-0.95437696 3.59466378 -0.47808424 1.79708452 0 0 Z " fill="#9359E0" transform="translate(153,502)"/>
<path d="M0 0 C0.33 0 0.66 0 1 0 C1.02712325 2.87506421 1.04689851 5.74986908 1.0625 8.625 C1.07087891 9.43324219 1.07925781 10.24148437 1.08789062 11.07421875 C1.1058955 15.50341918 0.89622662 19.63883424 0 24 C-3.96 24.33 -7.92 24.66 -12 25 C-11.67 24.34 -11.34 23.68 -11 23 C-8.03 23 -5.06 23 -2 23 C-2 17.72 -2 12.44 -2 7 C-1.34 7 -0.68 7 0 7 C0 4.69 0 2.38 0 0 Z " fill="#CFB3F2" transform="translate(198,166)"/>
<path d="M0 0 C3.23987703 0.56074795 4.75219336 1.3169203 6.75 3.9375 C9.74327644 8.44131532 9.91701114 12.75746459 9 18 C7.11429005 22.14856188 5.33884225 24.07524591 1.25 25.875 C-0.35875 26.431875 -0.35875 26.431875 -2 27 C-2 26.34 -2 25.68 -2 25 C-0.2984375 24.319375 -0.2984375 24.319375 1.4375 23.625 C3.95216466 22.199684 4.8354559 21.49532863 5.7578125 18.71875 C6.33675174 13.79034415 6.30661298 9.50338724 4 5 C1.96682993 3.26574227 1.96682993 3.26574227 0 2 C0 1.34 0 0.68 0 0 Z " fill="#A270E5" transform="translate(560,270)"/>
<path d="M0 0 C0 0.99 0 1.98 0 3 C-0.886875 3.2475 -1.77375 3.495 -2.6875 3.75 C-6.15374526 5.05801708 -8.13619959 6.69498992 -11 9 C-13.30252483 10.06902939 -15.6372026 11.07175817 -18 12 C-19.36125 12.61875 -19.36125 12.61875 -20.75 13.25 C-23 14 -23 14 -26 13 C-25.02160156 12.48050781 -24.04320312 11.96101563 -23.03515625 11.42578125 C-21.7108713 10.72147863 -20.38665724 10.0170427 -19.0625 9.3125 C-18.37969971 8.94962891 -17.69689941 8.58675781 -16.9934082 8.21289062 C-12.49867521 5.81796842 -8.04451376 3.36482321 -3.63671875 0.8125 C-2 0 -2 0 0 0 Z " fill="#CEB1F2" transform="translate(520,318)"/>
<path d="M0 0 C0 0.99 0 1.98 0 3 C-0.886875 3.2475 -1.77375 3.495 -2.6875 3.75 C-6.15374526 5.05801708 -8.13619959 6.69498992 -11 9 C-13.30252483 10.06902939 -15.6372026 11.07175817 -18 12 C-19.36125 12.61875 -19.36125 12.61875 -20.75 13.25 C-23 14 -23 14 -26 13 C-25.02160156 12.48050781 -24.04320312 11.96101563 -23.03515625 11.42578125 C-21.7108713 10.72147863 -20.38665724 10.0170427 -19.0625 9.3125 C-18.37969971 8.94962891 -17.69689941 8.58675781 -16.9934082 8.21289062 C-12.49867521 5.81796842 -8.04451376 3.36482321 -3.63671875 0.8125 C-2 0 -2 0 0 0 Z " fill="#CEB1F2" transform="translate(546,304)"/>
<path d="M0 0 C0 3.41775006 -0.24982104 6.77881173 -0.5 10.1875 C-0.5928125 11.45980469 -0.685625 12.73210937 -0.78125 14.04296875 C-0.8534375 15.01878906 -0.925625 15.99460938 -1 17 C-0.34 17 0.32 17 1 17 C2.06775224 18.96466413 3.06553465 20.96855359 4 23 C3.67 23.66 3.34 24.32 3 25 C1.6559907 23.00715862 0.32458708 21.00580329 -1 19 C-1.5775 18.2575 -2.155 17.515 -2.75 16.75 C-4.64982204 12.57039151 -4.72288699 8.51233666 -4 4 C-2 1.375 -2 1.375 0 0 Z " fill="#9C66E3" transform="translate(117,205)"/>
<path d="M0 0 C0.66 0.33 1.32 0.66 2 1 C1.30132812 1.73605469 0.60265625 2.47210938 -0.1171875 3.23046875 C-1.03682954 4.21579951 -1.95607976 5.20149606 -2.875 6.1875 C-3.33519531 6.67025391 -3.79539062 7.15300781 -4.26953125 7.65039062 C-7.01308267 10.61263092 -8.70455774 13.18674944 -10 17 C-12.21075447 19.8423986 -14.63983948 20.81940306 -18 22 C-16.3130142 17.74088153 -13.23205575 14.8223007 -10.125 11.5625 C-6.58347566 7.81847975 -3.1585903 4.08175316 0 0 Z " fill="#C29EEE" transform="translate(341,90)"/>
<path d="M0 0 C0.33 0.66 0.66 1.32 1 2 C0.34 2 -0.32 2 -1 2 C-1.1134375 2.721875 -1.226875 3.44375 -1.34375 4.1875 C-2.2320387 7.99445159 -4.00307129 11.07548147 -5.84375 14.5 C-7.00793265 17.01715168 -7.57095544 19.26971641 -8 22 C-8.66 22 -9.32 22 -10 22 C-10 23.32 -10 24.64 -10 26 C-10.99 26 -11.98 26 -13 26 C-11.70972038 21.69906795 -10.00255244 17.87649478 -7.90234375 13.9296875 C-6.98533248 11.96863309 -6.4551748 10.11163566 -6 8 C-5.34 8 -4.68 8 -4 8 C-4 6.68 -4 5.36 -4 4 C-3.34 4 -2.68 4 -2 4 C-2 3.01 -2 2.02 -2 1 C-1.34 0.67 -0.68 0.34 0 0 Z " fill="#A16FE3" transform="translate(278,276)"/>
<path d="M0 0 C0.33 0 0.66 0 1 0 C1 3.3 1 6.6 1 10 C0.34 10 -0.32 10 -1 10 C-1.12375 10.61875 -1.2475 11.2375 -1.375 11.875 C-2 14 -2 14 -4 16 C-4.99 16 -5.98 16 -7 16 C-7 16.66 -7 17.32 -7 18 C-8.7290774 18.02725341 -10.45828176 18.04650987 -12.1875 18.0625 C-13.63189453 18.07990234 -13.63189453 18.07990234 -15.10546875 18.09765625 C-17.85576513 18.00486622 -20.32479591 17.62111685 -23 17 C-23 16.67 -23 16.34 -23 16 C-21.57107422 15.92652344 -21.57107422 15.92652344 -20.11328125 15.8515625 C-18.85902344 15.77679688 -17.60476563 15.70203125 -16.3125 15.625 C-14.45044922 15.52058594 -14.45044922 15.52058594 -12.55078125 15.4140625 C-9.27831155 15.03245437 -6.9145089 14.50011487 -4 13 C-2.65589738 10.98264795 -2.65589738 10.98264795 -2 9 C-1.34 9 -0.68 9 0 9 C0 6.03 0 3.06 0 0 Z " fill="#A472E5" transform="translate(530,434)"/>
<path d="M0 0 C2.77704015 5.55408029 -0.41764118 14.30350826 -2 20 C-2.66 20 -3.32 20 -4 20 C-4 22.31 -4 24.62 -4 27 C-4.66 27.33 -5.32 27.66 -6 28 C-5.67 24.04 -5.34 20.08 -5 16 C-4.34 16 -3.68 16 -3 16 C-3 13.36 -3 10.72 -3 8 C-2.34 8 -1.68 8 -1 8 C-1.020625 6.865625 -1.04125 5.73125 -1.0625 4.5625 C-1 1 -1 1 0 0 Z " fill="#D4B9F4" transform="translate(171,416)"/>
<path d="M0 0 C1.33332095 2.6666419 0.67102033 4.16680303 0 7 C-0.66 7 -1.32 7 -2 7 C-1.87625 8.051875 -1.87625 8.051875 -1.75 9.125 C-2.08142532 12.93639122 -3.88913886 14.83370829 -6 18 C-6.63221494 20.12272069 -6.63221494 20.12272069 -7.0625 22.3125 C-7.371875 23.529375 -7.68125 24.74625 -8 26 C-8.99 26.33 -9.98 26.66 -11 27 C-10.52140759 25.39566191 -10.04210442 23.79153584 -9.5625 22.1875 C-9.29566406 21.29417969 -9.02882813 20.40085938 -8.75390625 19.48046875 C-8.19612127 17.64526945 -7.60655425 15.81966274 -7 14 C-6.34 14 -5.68 14 -5 14 C-4.9175 13.360625 -4.835 12.72125 -4.75 12.0625 C-3.70479628 7.79458483 -1.85908174 3.96892333 0 0 Z " fill="#CFB2F2" transform="translate(496,156)"/>
<path d="M0 0 C0.93423645 3.01031744 1.04449911 3.86650268 0 7 C-0.66 7 -1.32 7 -2 7 C-2 8.32 -2 9.64 -2 11 C-2.66 11 -3.32 11 -4 11 C-4 12.32 -4 13.64 -4 15 C-4.66 15 -5.32 15 -6 15 C-6.12375 15.804375 -6.2475 16.60875 -6.375 17.4375 C-6.684375 18.7059375 -6.684375 18.7059375 -7 20 C-7.66 20.33 -8.32 20.66 -9 21 C-9 19.68 -9 18.36 -9 17 C-8.34 17 -7.68 17 -7 17 C-6.89816406 16.13117188 -6.79632813 15.26234375 -6.69140625 14.3671875 C-5.95465207 10.77915302 -4.75250461 8.29160378 -2.9375 5.125 C-2.38964844 4.15820312 -1.84179688 3.19140625 -1.27734375 2.1953125 C-0.85582031 1.47085938 -0.43429687 0.74640625 0 0 Z " fill="#C9ACEF" transform="translate(302,231)"/>
<path d="M0 0 C1.051875 -0.02126953 1.051875 -0.02126953 2.125 -0.04296875 C4 0.1875 4 0.1875 6 2.1875 C6.19852102 4.89672801 6.27839477 7.48053179 6.25 10.1875 C6.25773437 10.92484375 6.26546875 11.6621875 6.2734375 12.421875 C6.2533196 17.9341804 6.2533196 17.9341804 4 20.1875 C4.33 14.5775 4.66 8.9675 5 3.1875 C4.01 3.1875 3.02 3.1875 2 3.1875 C2 2.5275 2 1.8675 2 1.1875 C-2.95514502 2.06222593 -2.95514502 2.06222593 -6.4375 5.3125 C-6.623125 5.93125 -6.80875 6.55 -7 7.1875 C-7.33 6.5275 -7.66 5.8675 -8 5.1875 C-6.27145385 0.79965208 -4.57604542 0.04205924 0 0 Z " fill="#CDB2F0" transform="translate(329,189.8125)"/>
<path d="M0 0 C4.71428571 3.38461538 4.71428571 3.38461538 5.8125 5.75 C6.43838051 13.26056614 5.87262583 17.49952093 2 24 C0.56911472 21.13822943 1.40008303 19.06624227 2 16 C2.66 16 3.32 16 4 16 C4 12.37 4 8.74 4 5 C3.34 5 2.68 5 2 5 C1.34 3.35 0.68 1.7 0 0 Z " fill="#A06DE4" transform="translate(492,138)"/>
<path d="M0 0 C0 0.99 0 1.98 0 3 C-1 4 -2 5 -3 6 C-3.33 6.825 -3.66 7.65 -4 8.5 C-5.4989153 12.24728825 -7.00882971 13.56204104 -10.6875 15.1875 C-11.450625 15.455625 -12.21375 15.72375 -13 16 C-11.3383196 11.87582937 -8.37661982 8.93445961 -5.375 5.75 C-4.859375 5.19570312 -4.34375 4.64140625 -3.8125 4.0703125 C-2.54574965 2.7097288 -1.27342185 1.35434163 0 0 Z " fill="#AD80E8" transform="translate(356,74)"/>
<path d="M0 0 C4.08547922 0.7428144 8.01456112 1.8405996 12 3 C13.33130115 3.34135927 14.66358148 3.67925956 16 4 C16 4.66 16 5.32 16 6 C16.86625 5.938125 17.7325 5.87625 18.625 5.8125 C22.44199033 6.02455502 24.71077536 7.12044307 28 9 C25.13822943 10.43088528 23.06624227 9.59991697 20 9 C20 8.34 20 7.68 20 7 C19.278125 7.061875 18.55625 7.12375 17.8125 7.1875 C14.41000417 6.96066694 12.87926585 5.78240267 10 4 C7.67126625 3.31744011 5.33817209 2.64949225 3 2 C2.01 1.34 1.02 0.68 0 0 Z " fill="#965EE1" transform="translate(257,118)"/>
<path d="M0 0 C4.08547922 0.7428144 8.01456112 1.8405996 12 3 C13.33130115 3.34135927 14.66358148 3.67925956 16 4 C16 4.66 16 5.32 16 6 C16.86625 5.938125 17.7325 5.87625 18.625 5.8125 C22.44199033 6.02455502 24.71077536 7.12044307 28 9 C25.13822943 10.43088528 23.06624227 9.59991697 20 9 C20 8.34 20 7.68 20 7 C19.278125 7.061875 18.55625 7.12375 17.8125 7.1875 C14.41000417 6.96066694 12.87926585 5.78240267 10 4 C7.67126625 3.31744011 5.33817209 2.64949225 3 2 C2.01 1.34 1.02 0.68 0 0 Z " fill="#965EE1" transform="translate(229,108)"/>
<path d="M0 0 C1 2 1 2 0.25 4.8125 C-1 8 -1 8 -2.5 10.375 C-3.90321482 12.83062593 -4.41929372 14.53035894 -5 17.25 C-5.33 18.4875 -5.66 19.725 -6 21 C-6.99 21.33 -7.98 21.66 -9 22 C-8.52140759 20.39566191 -8.04210442 18.79153584 -7.5625 17.1875 C-7.29566406 16.29417969 -7.02882813 15.40085938 -6.75390625 14.48046875 C-6.19612127 12.64526945 -5.60655425 10.81966274 -5 9 C-4.34 9 -3.68 9 -3 9 C-2.814375 7.88625 -2.814375 7.88625 -2.625 6.75 C-2.04513299 4.19858515 -1.26291261 2.2732427 0 0 Z " fill="#C6A6F0" transform="translate(484,185)"/>
<path d="M0 0 C0.66 0.33 1.32 0.66 2 1 C-1.21863227 4.73361343 -4.43492176 6.23803998 -9 8 C-10.36125 8.61875 -10.36125 8.61875 -11.75 9.25 C-14 10 -14 10 -17 9 C-14.21526125 7.46621464 -11.42121662 5.9502442 -8.625 4.4375 C-7.8309375 3.99986328 -7.036875 3.56222656 -6.21875 3.11132812 C-5.45820312 2.70205078 -4.69765625 2.29277344 -3.9140625 1.87109375 C-2.8614624 1.29766235 -2.8614624 1.29766235 -1.78759766 0.71264648 C-1.19769043 0.47747314 -0.6077832 0.2422998 0 0 Z " fill="#CEB1F2" transform="translate(563,294)"/>
<path d="M0 0 C1.32 0.33 2.64 0.66 4 1 C4 5.62 4 10.24 4 15 C3.34 15 2.68 15 2 15 C2 17.97 2 20.94 2 24 C1.67 24 1.34 24 1 24 C0.97313447 22.02090602 0.95366625 20.04171029 0.9375 18.0625 C0.92589844 16.96035156 0.91429687 15.85820312 0.90234375 14.72265625 C1 12 1 12 2 11 C2.07148199 9.64756083 2.08399454 8.29165633 2.0625 6.9375 C2.041875 5.638125 2.02125 4.33875 2 3 C1.34 2.67 0.68 2.34 0 2 C0 1.34 0 0.68 0 0 Z " fill="#9259DF" transform="translate(319,335)"/>
<path d="M0 0 C0 0.99 0 1.98 0 3 C-1.4562545 3.67119549 -2.91507867 4.33681807 -4.375 5 C-5.59316406 5.556875 -5.59316406 5.556875 -6.8359375 6.125 C-9 7 -9 7 -11 7 C-11.33 7.99 -11.66 8.98 -12 10 C-13.32 9.67 -14.64 9.34 -16 9 C-12.78468312 5.27023241 -9.53110528 3.81244211 -5 2 C-2 0 -2 0 0 0 Z " fill="#C29EEE" transform="translate(184,534)"/>
<path d="M0 0 C0 0.99 0 1.98 0 3 C-1.4562545 3.67119549 -2.91507867 4.33681807 -4.375 5 C-5.59316406 5.556875 -5.59316406 5.556875 -6.8359375 6.125 C-9 7 -9 7 -11 7 C-11.33 7.99 -11.66 8.98 -12 10 C-13.32 9.67 -14.64 9.34 -16 9 C-12.78468312 5.27023241 -9.53110528 3.81244211 -5 2 C-2 0 -2 0 0 0 Z " fill="#C29EEE" transform="translate(206,520)"/>
<path d="M0 0 C0 0.99 0 1.98 0 3 C-1.4562545 3.67119549 -2.91507867 4.33681807 -4.375 5 C-5.59316406 5.556875 -5.59316406 5.556875 -6.8359375 6.125 C-9 7 -9 7 -11 7 C-11.33 7.99 -11.66 8.98 -12 10 C-13.32 9.67 -14.64 9.34 -16 9 C-12.78468312 5.27023241 -9.53110528 3.81244211 -5 2 C-2 0 -2 0 0 0 Z " fill="#C29EEE" transform="translate(228,506)"/>
<path d="M0 0 C0 0.99 0 1.98 0 3 C-1.4562545 3.67119549 -2.91507867 4.33681807 -4.375 5 C-5.59316406 5.556875 -5.59316406 5.556875 -6.8359375 6.125 C-9 7 -9 7 -11 7 C-11.33 7.99 -11.66 8.98 -12 10 C-13.32 9.67 -14.64 9.34 -16 9 C-12.78468312 5.27023241 -9.53110528 3.81244211 -5 2 C-2 0 -2 0 0 0 Z " fill="#C29EEE" transform="translate(250,492)"/>
<path d="M0 0 C0 0.99 0 1.98 0 3 C-1.4562545 3.67119549 -2.91507867 4.33681807 -4.375 5 C-5.59316406 5.556875 -5.59316406 5.556875 -6.8359375 6.125 C-9 7 -9 7 -11 7 C-11.33 7.99 -11.66 8.98 -12 10 C-13.32 9.67 -14.64 9.34 -16 9 C-12.78468312 5.27023241 -9.53110528 3.81244211 -5 2 C-2 0 -2 0 0 0 Z " fill="#C29EEE" transform="translate(272,478)"/>
<path d="M0 0 C0 0.99 0 1.98 0 3 C-1.4562545 3.67119549 -2.91507867 4.33681807 -4.375 5 C-5.59316406 5.556875 -5.59316406 5.556875 -6.8359375 6.125 C-9 7 -9 7 -11 7 C-11.33 7.99 -11.66 8.98 -12 10 C-13.32 9.67 -14.64 9.34 -16 9 C-12.78468312 5.27023241 -9.53110528 3.81244211 -5 2 C-2 0 -2 0 0 0 Z " fill="#C29EEE" transform="translate(294,464)"/>
<path d="M0 0 C0.33 0.99 0.66 1.98 1 3 C0.34 3 -0.32 3 -1 3 C-1.103125 3.556875 -1.20625 4.11375 -1.3125 4.6875 C-2.14704296 7.49459905 -3.31772698 9.60599609 -5 12 C-5.99 12.33 -6.98 12.66 -8 13 C-6.55049545 9.2089881 -4.84827434 5.6125362 -3 2 C-2.01 2 -1.02 2 0 2 C0 1.34 0 0.68 0 0 Z " fill="#AB7EE6" transform="translate(343,388)"/>
<path d="M0 0 C0.33 0.99 0.66 1.98 1 3 C0.34 3 -0.32 3 -1 3 C-1.103125 3.556875 -1.20625 4.11375 -1.3125 4.6875 C-2.14704296 7.49459905 -3.31772698 9.60599609 -5 12 C-5.99 12.33 -6.98 12.66 -8 13 C-6.55049545 9.2089881 -4.84827434 5.6125362 -3 2 C-2.01 2 -1.02 2 0 2 C0 1.34 0 0.68 0 0 Z " fill="#AB7FE6" transform="translate(359,362)"/>
<path d="M0 0 C0.33 0.99 0.66 1.98 1 3 C0.34 3 -0.32 3 -1 3 C-1.103125 3.556875 -1.20625 4.11375 -1.3125 4.6875 C-2.14704296 7.49459905 -3.31772698 9.60599609 -5 12 C-5.99 12.33 -6.98 12.66 -8 13 C-6.55049545 9.2089881 -4.84827434 5.6125362 -3 2 C-2.01 2 -1.02 2 0 2 C0 1.34 0 0.68 0 0 Z " fill="#AB7FE6" transform="translate(375,336)"/>
<path d="M0 0 C0.33 0.66 0.66 1.32 1 2 C0.34 2 -0.32 2 -1 2 C-1.10183594 2.70511719 -1.20367187 3.41023437 -1.30859375 4.13671875 C-2.09914812 7.41059645 -3.40523734 9.88584467 -5.0625 12.8125 C-5.61035156 13.78832031 -6.15820312 14.76414062 -6.72265625 15.76953125 C-7.14417969 16.50558594 -7.56570313 17.24164063 -8 18 C-9 16 -9 16 -8.44140625 14.0546875 C-8.00634766 12.97574219 -8.00634766 12.97574219 -7.5625 11.875 C-7.27503906 11.15054687 -6.98757813 10.42609375 -6.69140625 9.6796875 C-6.46324219 9.12539062 -6.23507812 8.57109375 -6 8 C-5.34 8 -4.68 8 -4 8 C-4 6.68 -4 5.36 -4 4 C-3.34 4 -2.68 4 -2 4 C-2 3.01 -2 2.02 -2 1 C-1.34 0.67 -0.68 0.34 0 0 Z " fill="#A06EE3" transform="translate(294,246)"/>
<path d="M0 0 C1.79244141 0.01740234 1.79244141 0.01740234 3.62109375 0.03515625 C5.41740234 0.04869141 5.41740234 0.04869141 7.25 0.0625 C8.17683594 0.07410156 9.10367188 0.08570313 10.05859375 0.09765625 C10.05859375 0.42765625 10.05859375 0.75765625 10.05859375 1.09765625 C1.73945682 2.64156815 -6.49710346 3.58010221 -14.94140625 4.09765625 C-14.61140625 3.43765625 -14.28140625 2.77765625 -13.94140625 2.09765625 C-11.69140625 1.71875 -11.69140625 1.71875 -8.94140625 1.53515625 C-5.49398692 1.29520803 -3.23758468 0.10748953 0 0 Z " fill="#DBC5F6" transform="translate(174.94140625,190.90234375)"/>
<path d="M0 0 C-4.91333208 2.54137866 -9.21130425 3.25059716 -14.6875 3.5625 C-15.38939453 3.60568359 -16.09128906 3.64886719 -16.81445312 3.69335938 C-18.54275206 3.7991736 -20.2713511 3.90006581 -22 4 C-15.68598198 -0.20934535 -7.41145544 -0.27967756 0 0 Z " fill="#9E6AE3" transform="translate(159,196)"/>
<path d="M0 0 C-4.91333208 2.54137866 -9.21130425 3.25059716 -14.6875 3.5625 C-15.38939453 3.60568359 -16.09128906 3.64886719 -16.81445312 3.69335938 C-18.54275206 3.7991736 -20.2713511 3.90006581 -22 4 C-15.68598198 -0.20934535 -7.41145544 -0.27967756 0 0 Z " fill="#9E6AE3" transform="translate(185,192)"/>
<path d="M0 0 C0.99 0 1.98 0 3 0 C2.01 3.3 1.02 6.6 0 10 C-0.66 10 -1.32 10 -2 10 C-2 11.32 -2 12.64 -2 14 C-2.99 14 -3.98 14 -5 14 C-3.94124926 10.59687262 -2.99097846 7.98646769 -1 5 C-0.61500109 3.34450469 -0.27206865 1.6777567 0 0 Z " fill="#BE9BEC" transform="translate(318,198)"/>
<path d="M0 0 C0.33 0 0.66 0 1 0 C1 6.27 1 12.54 1 19 C0.34 19 -0.32 19 -1 19 C-1 20.98 -1 22.96 -1 25 C-1.33 25 -1.66 25 -2 25 C-2.125 17.25 -2.125 17.25 -1 15 C-0.76827173 12.45384991 -0.58105471 9.92603775 -0.4375 7.375 C-0.39431641 6.66859375 -0.35113281 5.9621875 -0.30664062 5.234375 C-0.20055249 3.48981463 -0.09977111 1.74493303 0 0 Z " fill="#A677E5" transform="translate(335,193)"/>
<path d="M0 0 C0.33 0 0.66 0 1 0 C1 2.97 1 5.94 1 9 C0.34 9 -0.32 9 -1 9 C-0.97679687 9.69867188 -0.95359375 10.39734375 -0.9296875 11.1171875 C-0.91164063 12.02726562 -0.89359375 12.93734375 -0.875 13.875 C-0.85179687 14.77992188 -0.82859375 15.68484375 -0.8046875 16.6171875 C-1 19 -1 19 -3 21 C-2.88513575 18.62412376 -2.75841844 16.24984829 -2.625 13.875 C-2.5940625 13.20984375 -2.563125 12.5446875 -2.53125 11.859375 C-2.28080367 7.60178738 -1.52471803 3.97914217 0 0 Z " fill="#A575E4" transform="translate(320,359)"/>
<path d="M0 0 C4.75 0.875 4.75 0.875 7 2 C9.04055005 2.07065617 11.08334257 2.08421976 13.125 2.0625 C14.22070312 2.05347656 15.31640625 2.04445313 16.4453125 2.03515625 C17.28835938 2.02355469 18.13140625 2.01195312 19 2 C19 2.66 19 3.32 19 4 C16.5821288 4.10826289 14.16912444 4.18739789 11.75 4.25 C10.72712891 4.30027344 10.72712891 4.30027344 9.68359375 4.3515625 C6.07818187 4.4215705 4.35931188 4.29151719 1.515625 1.984375 C1.01546875 1.32953125 0.5153125 0.6746875 0 0 Z " fill="#A16EE4" transform="translate(360,500)"/>
<path d="M0 0 C0.33 0 0.66 0 1 0 C1.05434116 2.5419589 1.0938339 5.08273682 1.125 7.625 C1.15013672 8.69427734 1.15013672 8.69427734 1.17578125 9.78515625 C1.21684602 14.2612164 0.69086567 17.77949278 -1 22 C-1.33 22 -1.66 22 -2 22 C-2 19.36 -2 16.72 -2 14 C-1.34 14 -0.68 14 0 14 C0 9.38 0 4.76 0 0 Z " fill="#CDB1F0" transform="translate(323,336)"/>
<path d="M0 0 C1.9375 0.375 1.9375 0.375 4 1 C4.33 1.66 4.66 2.32 5 3 C7.02463255 3.65213292 7.02463255 3.65213292 9 4 C9 4.66 9 5.32 9 6 C9.99 6.33 10.98 6.66 12 7 C9.50907189 8.24546405 8.58919267 7.7767578 6 7 C6 6.34 6 5.68 6 5 C4.68 5 3.36 5 2 5 C2 4.01 2 3.02 2 2 C1.34 2 0.68 2 0 2 C0 1.34 0 0.68 0 0 Z " fill="#AA7BE7" transform="translate(546,262)"/>
<path d="M0 0 C1.9375 0.375 1.9375 0.375 4 1 C4.33 1.66 4.66 2.32 5 3 C7.02463255 3.65213292 7.02463255 3.65213292 9 4 C9 4.66 9 5.32 9 6 C9.99 6.33 10.98 6.66 12 7 C9.50907189 8.24546405 8.58919267 7.7767578 6 7 C6 6.34 6 5.68 6 5 C4.68 5 3.36 5 2 5 C2 4.01 2 3.02 2 2 C1.34 2 0.68 2 0 2 C0 1.34 0 0.68 0 0 Z " fill="#AA7BE7" transform="translate(514,244)"/>
<path d="M0 0 C1.9375 0.375 1.9375 0.375 4 1 C4.33 1.66 4.66 2.32 5 3 C7.02463255 3.65213292 7.02463255 3.65213292 9 4 C9 4.66 9 5.32 9 6 C9.99 6.33 10.98 6.66 12 7 C9.50907189 8.24546405 8.58919267 7.7767578 6 7 C6 6.34 6 5.68 6 5 C4.68 5 3.36 5 2 5 C2 4.01 2 3.02 2 2 C1.34 2 0.68 2 0 2 C0 1.34 0 0.68 0 0 Z " fill="#AA7BE7" transform="translate(482,226)"/>
<path d="M0 0 C0 3.51716303 -0.82445585 4.37121748 -3 7 C-7.15654359 6.53816182 -9.21466571 6.11990898 -12 3 C-11.07767578 3.05220703 -11.07767578 3.05220703 -10.13671875 3.10546875 C-8.92435547 3.14607422 -8.92435547 3.14607422 -7.6875 3.1875 C-6.88699219 3.22230469 -6.08648437 3.25710937 -5.26171875 3.29296875 C-2.52148416 2.93801608 -1.70828921 2.10633718 0 0 Z " fill="#C19CEE" transform="translate(308,127)"/>
<path d="M0 0 C2.3125 0.25 2.3125 0.25 5 1 C6.04115841 2.30144802 7.03886134 3.63838689 8 5 C10.58443323 6.73490246 10.58443323 6.73490246 13 8 C9.13304322 8 6.4911548 6.58090029 3 5 C3 4.01 3 3.02 3 2 C2.01 1.67 1.02 1.34 0 1 C0 0.67 0 0.34 0 0 Z " fill="#BF9AED" transform="translate(338,486)"/>
<path d="M0 0 C2.3125 0.25 2.3125 0.25 5 1 C6.04115841 2.30144802 7.03886134 3.63838689 8 5 C10.58443323 6.73490246 10.58443323 6.73490246 13 8 C9.13304322 8 6.4911548 6.58090029 3 5 C3 4.01 3 3.02 3 2 C2.01 1.67 1.02 1.34 0 1 C0 0.67 0 0.34 0 0 Z " fill="#BF9AED" transform="translate(316,472)"/>
<path d="M0 0 C3.24745514 4.13312472 5 6.63932628 5 12 C5.66 12 6.32 12 7 12 C6.67 13.32 6.34 14.64 6 16 C6 15.34 6 14.68 6 14 C5.34 14 4.68 14 4 14 C3.32471777 12.42032193 2.66010306 10.83608097 2 9.25 C1.62875 8.36828125 1.2575 7.4865625 0.875 6.578125 C0 4 0 4 0 0 Z " fill="#945BE0" transform="translate(516,400)"/>
<path d="M0 0 C3.24745514 4.13312472 5 6.63932628 5 12 C5.66 12 6.32 12 7 12 C6.67 13.32 6.34 14.64 6 16 C6 15.34 6 14.68 6 14 C5.34 14 4.68 14 4 14 C3.32471777 12.42032193 2.66010306 10.83608097 2 9.25 C1.62875 8.36828125 1.2575 7.4865625 0.875 6.578125 C0 4 0 4 0 0 Z " fill="#945BE0" transform="translate(502,366)"/>
<path d="M0 0 C0.33 0.99 0.66 1.98 1 3 C-1.77280706 6.08089673 -4.06326356 7.68775452 -8 9 C-6.4169423 4.7257442 -3.49431596 2.73468206 0 0 Z " fill="#9F6BE4" transform="translate(331,103)"/>
<path d="M0 0 C1.3805087 3.76668598 0.59568159 6.44789173 -0.4375 10.25 C-0.72496094 11.32765625 -1.01242188 12.4053125 -1.30859375 13.515625 C-1.53675781 14.33546875 -1.76492187 15.1553125 -2 16 C-2.91787677 12.97031651 -3.04344865 10.57728581 -2.6875 7.4375 C-2.60886719 6.67308594 -2.53023437 5.90867187 -2.44921875 5.12109375 C-2 3 -2 3 0 0 Z " fill="#BE98ED" transform="translate(154,494)"/>
<path d="M0 0 C1.3805087 3.76668598 0.59568159 6.44789173 -0.4375 10.25 C-0.72496094 11.32765625 -1.01242188 12.4053125 -1.30859375 13.515625 C-1.53675781 14.33546875 -1.76492187 15.1553125 -2 16 C-2.91787677 12.97031651 -3.04344865 10.57728581 -2.6875 7.4375 C-2.60886719 6.67308594 -2.53023437 5.90867187 -2.44921875 5.12109375 C-2 3 -2 3 0 0 Z " fill="#BE98ED" transform="translate(164,450)"/>
<path d="M0 0 C1 2 1 2 0.375 4.1875 C-1.38829835 7.79424662 -3.60121699 10.7805807 -6 14 C-6 10.53725128 -5.13436881 8.92967989 -3.5625 5.875 C-3.11003906 4.98554688 -2.65757812 4.09609375 -2.19140625 3.1796875 C-1 1 -1 1 0 0 Z " fill="#9861E1" transform="translate(334,402)"/>
<path d="M0 0 C1 2 1 2 0.9375 5.75 C0.87562682 9.51738912 1.59063226 12.47658065 3 16 C2.34 16 1.68 16 1 16 C-1.33368594 12.49947109 -1.24221979 11.00385663 -1.1875 6.875 C-1.18105469 5.79992187 -1.17460938 4.72484375 -1.16796875 3.6171875 C-1 1 -1 1 0 0 Z " fill="#A270E5" transform="translate(114,356)"/>
<path d="M0 0 C0.33 0 0.66 0 1 0 C1.08153933 1.58246707 1.13943557 3.16616273 1.1875 4.75 C1.23970703 6.07257813 1.23970703 6.07257813 1.29296875 7.421875 C0.94923684 10.44671583 -0.00227459 11.75583602 -2 14 C-2.21192221 8.80790596 -1.5912689 4.873261 0 0 Z " fill="#C39FEE" transform="translate(174,402)"/>
<path d="M0 0 C0 0.99 0 1.98 0 3 C-3.64793184 4.27253436 -7.1936543 5.32829194 -11 6 C-8.24029211 2.78034079 -4.3526723 0 0 0 Z " fill="#C7A7F0" transform="translate(520,318)"/>
<path d="M0 0 C0 0.99 0 1.98 0 3 C-3.64793184 4.27253436 -7.1936543 5.32829194 -11 6 C-8.24029211 2.78034079 -4.3526723 0 0 0 Z " fill="#C7A7F0" transform="translate(546,304)"/>
<path d="M0 0 C0 0.99 0 1.98 0 3 C-2.30368736 4.06652192 -4.64018187 5.06421005 -7 6 C-7.66 5.67 -8.32 5.34 -9 5 C-7.87926138 4.16094435 -6.75325453 3.32892169 -5.625 2.5 C-4.99851563 2.0359375 -4.37203125 1.571875 -3.7265625 1.09375 C-2 0 -2 0 0 0 Z " fill="#CDAFF2" transform="translate(168,544)"/>
<path d="M0 0 C0.33 0 0.66 0 1 0 C1.48990279 5.06232884 -0.2893678 9.32630846 -2 14 C-2.97919756 10.92449216 -2.98561151 8.97555928 -2.125 5.875 C-1.94195312 5.19179688 -1.75890625 4.50859375 -1.5703125 3.8046875 C-1 2 -1 2 0 0 Z " fill="#8B4DDD" transform="translate(171,426)"/>
<path d="M0 0 C0.66 0 1.32 0 2 0 C2 1.32 2 2.64 2 4 C1.34 4 0.68 4 0 4 C-0.12375 4.804375 -0.2475 5.60875 -0.375 6.4375 C-0.58125 7.283125 -0.7875 8.12875 -1 9 C-1.99 9.495 -1.99 9.495 -3 10 C-3 8.68 -3 7.36 -3 6 C-2.34 6 -1.68 6 -1 6 C-0.67 4.02 -0.34 2.04 0 0 Z " fill="#D7C1F3" transform="translate(296,242)"/>
<path d="M0 0 C1.27596315 3.82788944 0.62344752 5.36656983 -1 9 C-3.125 10.375 -3.125 10.375 -5 11 C-3.55049545 7.2089881 -1.84827434 3.6125362 0 0 Z " fill="#CCB0F0" transform="translate(312,212)"/>
<path d="M0 0 C1.55112122 3.10224244 0.21983908 5.65361955 -0.625 8.90625 C-1.22424501 11.04975618 -1.22424501 11.04975618 0 13 C-0.99 12.67 -1.98 12.34 -3 12 C-3.34833144 7.12335991 -2.41685712 4.22949995 0 0 Z " fill="#D4BAF4" transform="translate(474,209)"/>
<path d="M0 0 C11 2 11 2 14 5 C12.35 5 10.7 5 9 5 C9 4.34 9 3.68 9 3 C8.2575 3.061875 7.515 3.12375 6.75 3.1875 C3.54616994 2.96905704 2.35968744 2.09749995 0 0 Z " fill="#945BE0" transform="translate(285,128)"/>
<path d="M0 0 C2.97 0 5.94 0 9 0 C8.67 0.99 8.34 1.98 8 3 C6.35 3 4.7 3 3 3 C3 2.34 3 1.68 3 1 C2.01 0.67 1.02 0.34 0 0 Z " fill="#D6BCF4" transform="translate(366,504)"/>
<path d="M0 0 C0.66 0 1.32 0 2 0 C2 1.32 2 2.64 2 4 C1.34 4 0.68 4 0 4 C0 5.32 0 6.64 0 8 C-0.99 8 -1.98 8 -3 8 C-1.125 2.25 -1.125 2.25 0 0 Z " fill="#CCB1F0" transform="translate(268,294)"/>
<path d="M0 0 C0.66 0 1.32 0 2 0 C2 1.32 2 2.64 2 4 C1.34 4 0.68 4 0 4 C0 5.32 0 6.64 0 8 C-0.66 8 -1.32 8 -2 8 C-2.33 8.66 -2.66 9.32 -3 10 C-3 8.68 -3 7.36 -3 6 C-2.34 6 -1.68 6 -1 6 C-0.67 4.02 -0.34 2.04 0 0 Z " fill="#D7C1F3" transform="translate(280,272)"/>
<path d="M0 0 C2.475 0.495 2.475 0.495 5 1 C5 1.66 5 2.32 5 3 C7.475 3.99 7.475 3.99 10 5 C8 6 8 6 6.125 5.875 C3.13170878 4.64246832 1.85618632 2.58540237 0 0 Z " fill="#B287E9" transform="translate(534,256)"/>
<path d="M0 0 C2.475 0.495 2.475 0.495 5 1 C5 1.66 5 2.32 5 3 C7.475 3.99 7.475 3.99 10 5 C8 6 8 6 6.125 5.875 C3.13170878 4.64246832 1.85618632 2.58540237 0 0 Z " fill="#B287E9" transform="translate(502,238)"/>
<path d="M0 0 C0.66 0 1.32 0 2 0 C2.69710731 1.28650706 3.38242876 2.57940665 4.0625 3.875 C4.63677734 4.95394531 4.63677734 4.95394531 5.22265625 6.0546875 C5.47917969 6.69664063 5.73570312 7.33859375 6 8 C5.67 8.66 5.34 9.32 5 10 C1.32769295 6.92000054 0.43197635 4.7517398 0 0 Z " fill="#AB7CE7" transform="translate(383,73)"/>
<path d="M0 0 C1 2 1 2 0.3125 4.4375 C-1.10829685 7.21143671 -2.39746148 8.35172561 -5 10 C-3.84414715 6.08788267 -2.64465038 3.1254959 0 0 Z " fill="#9C68E2" transform="translate(350,376)"/>
<path d="M0 0 C2.97 0.99 5.94 1.98 9 3 C9 3.66 9 4.32 9 5 C2.25 3.375 2.25 3.375 0 0 Z " fill="#9961E2" transform="translate(117,372)"/>
<path d="M0 0 C1.24546405 2.49092811 0.7767578 3.41080733 0 6 C-0.66 6 -1.32 6 -2 6 C-2.66 7.32 -3.32 8.64 -4 10 C-4 5.75354935 -2.18249194 3.61475228 0 0 Z " fill="#9F6CE3" transform="translate(366,350)"/>
<path d="M0 0 C1.24546405 2.49092811 0.7767578 3.41080733 0 6 C-0.66 6 -1.32 6 -2 6 C-2.66 7.32 -3.32 8.64 -4 10 C-4 5.75354935 -2.18249194 3.61475228 0 0 Z " fill="#9F6CE3" transform="translate(382,324)"/>
<path d="M0 0 C1.24546405 2.49092811 0.7767578 3.41080733 0 6 C-0.66 6 -1.32 6 -2 6 C-2 7.98 -2 9.96 -2 12 C-2.33 12 -2.66 12 -3 12 C-3.36923077 4.61538462 -3.36923077 4.61538462 -1.5 1.5 C-1.005 1.005 -0.51 0.51 0 0 Z " fill="#CEB3F0" transform="translate(256,318)"/>
<path d="M0 0 C1.24546405 2.49092811 0.7767578 3.41080733 0 6 C-0.66 6 -1.32 6 -2 6 C-2.66 7.32 -3.32 8.64 -4 10 C-4 5.75354935 -2.18249194 3.61475228 0 0 Z " fill="#9F6CE3" transform="translate(398,298)"/>
<path d="M0 0 C0.66 0.33 1.32 0.66 2 1 C1.55090939 2.48199902 1.09043436 3.96055236 0.625 5.4375 C0.36976563 6.26121094 0.11453125 7.08492187 -0.1484375 7.93359375 C-1 10 -1 10 -3 11 C-2.67 8.69 -2.34 6.38 -2 4 C-1.34 4 -0.68 4 0 4 C0 2.68 0 1.36 0 0 Z " fill="#A06FE3" transform="translate(306,220)"/>
<path d="M0 0 C1 2 1 2 0.25 4.9375 C-0.92931463 7.82682085 -1.78177928 8.95850565 -4 11 C-3.5247412 9.35303396 -3.04468109 7.70745272 -2.5625 6.0625 C-2.29566406 5.14597656 -2.02882813 4.22945312 -1.75390625 3.28515625 C-1 1 -1 1 0 0 Z " fill="#D6BDF4" transform="translate(484,185)"/>
<path d="M0 0 C1.4391134 0.28359887 2.87625518 0.57721399 4.3125 0.875 C5.11300781 1.03742188 5.91351563 1.19984375 6.73828125 1.3671875 C9 2 9 2 12 4 C7.12335991 4.34833144 4.22949995 3.41685712 0 1 C0 0.67 0 0.34 0 0 Z " fill="#CCADF1" transform="translate(284,126)"/>
<path d="M0 0 C1.4391134 0.28359887 2.87625518 0.57721399 4.3125 0.875 C5.11300781 1.03742188 5.91351563 1.19984375 6.73828125 1.3671875 C9 2 9 2 12 4 C7.12335991 4.34833144 4.22949995 3.41685712 0 1 C0 0.67 0 0.34 0 0 Z " fill="#CCADF1" transform="translate(256,116)"/>
<path d="M0 0 C1.4391134 0.28359887 2.87625518 0.57721399 4.3125 0.875 C5.11300781 1.03742188 5.91351563 1.19984375 6.73828125 1.3671875 C9 2 9 2 12 4 C7.12335991 4.34833144 4.22949995 3.41685712 0 1 C0 0.67 0 0.34 0 0 Z " fill="#CCADF1" transform="translate(228,106)"/>
<path d="M0 0 C0.33 0.99 0.66 1.98 1 3 C-1.31 4.98 -3.62 6.96 -6 9 C-4.25618453 5.51236907 -2.47193291 2.96631949 0 0 Z " fill="#8748DC" transform="translate(311,125)"/>
</svg>
