<?xml version="1.0" encoding="UTF-8"?>
<svg version="1.1" xmlns="http://www.w3.org/2000/svg" width="48" height="48">
<path d="M0 0 C0.84175781 -0.00257812 1.68351562 -0.00515625 2.55078125 -0.0078125 C3.87142578 0.00378906 3.87142578 0.00378906 5.21875 0.015625 C6.09917969 0.00789063 6.97960938 0.00015625 7.88671875 -0.0078125 C8.72847656 -0.00523438 9.57023437 -0.00265625 10.4375 0 C11.59668945 0.00338379 11.59668945 0.00338379 12.77929688 0.00683594 C14.71875 0.265625 14.71875 0.265625 16.71875 2.265625 C17.03125 5.765625 17.03125 5.765625 16.71875 9.265625 C12.87556569 11.82774787 9.67181045 11.59671039 5.21875 11.578125 C4.06052734 11.60229492 4.06052734 11.60229492 2.87890625 11.62695312 C-2.80679083 11.63188007 -2.80679083 11.63188007 -5.00585938 9.93432617 C-6.94486777 7.39735788 -6.60994791 5.35538538 -6.28125 2.265625 C-3.87295208 -0.14267292 -3.28841444 0.00959921 0 0 Z " fill="#E28600" transform="translate(31.28125,24.734375)"/>
<path d="M0 0 C2.40829792 2.40829792 2.25602579 2.99283556 2.265625 6.28125 C2.26820312 7.12300781 2.27078125 7.96476562 2.2734375 8.83203125 C2.26570313 9.71246094 2.25796875 10.59289063 2.25 11.5 C2.25773437 12.38042969 2.26546875 13.26085938 2.2734375 14.16796875 C2.27085938 15.00972656 2.26828125 15.85148437 2.265625 16.71875 C2.26336914 17.49154297 2.26111328 18.26433594 2.25878906 19.06054688 C2 21 2 21 0 23 C-3.5 23.3125 -3.5 23.3125 -7 23 C-9.56212287 19.15681569 -9.33108539 15.95306045 -9.3125 11.5 C-9.32861328 10.72785156 -9.34472656 9.95570312 -9.36132812 9.16015625 C-9.36625507 3.47445917 -9.36625507 3.47445917 -7.66870117 1.27539062 C-5.13173288 -0.66361777 -3.08976038 -0.32869791 0 0 Z " fill="#CF1A56" transform="translate(21,25)"/>
<path d="M0 0 C0.77214844 -0.01611328 1.54429688 -0.03222656 2.33984375 -0.04882812 C8.02554083 -0.05375507 8.02554083 -0.05375507 10.22460938 1.64379883 C12.16361777 4.18076712 11.82869791 6.22273962 11.5 9.3125 C9.09170208 11.72079792 8.50716444 11.56852579 5.21875 11.578125 C4.37699219 11.58070312 3.53523437 11.58328125 2.66796875 11.5859375 C1.34732422 11.57433594 1.34732422 11.57433594 0 11.5625 C-0.88042969 11.57023437 -1.76085938 11.57796875 -2.66796875 11.5859375 C-3.50972656 11.58335938 -4.35148438 11.58078125 -5.21875 11.578125 C-5.99154297 11.57586914 -6.76433594 11.57361328 -7.56054688 11.57128906 C-9.5 11.3125 -9.5 11.3125 -11.5 9.3125 C-11.8125 5.8125 -11.8125 5.8125 -11.5 2.3125 C-7.65681569 -0.24962287 -4.45306045 -0.01858539 0 0 Z " fill="#00BBD2" transform="translate(11.5,11.6875)"/>
<path d="M0 0 C1.7325 0.1546875 1.7325 0.1546875 3.5 0.3125 C6.06212287 4.15568431 5.83108539 7.35943955 5.8125 11.8125 C5.82861328 12.58464844 5.84472656 13.35679688 5.86132812 14.15234375 C5.86625507 19.83804083 5.86625507 19.83804083 4.16870117 22.03710938 C1.63173288 23.97611777 -0.41023962 23.64119791 -3.5 23.3125 C-5.90829792 20.90420208 -5.75602579 20.31966444 -5.765625 17.03125 C-5.76820312 16.18949219 -5.77078125 15.34773437 -5.7734375 14.48046875 C-5.76183594 13.15982422 -5.76183594 13.15982422 -5.75 11.8125 C-5.75773437 10.93207031 -5.76546875 10.05164062 -5.7734375 9.14453125 C-5.77085938 8.30277344 -5.76828125 7.46101562 -5.765625 6.59375 C-5.76336914 5.82095703 -5.76111328 5.04816406 -5.75878906 4.25195312 C-5.25322191 0.46306116 -3.56404599 0.31821839 0 0 Z " fill="#4AAE4E" transform="translate(30.5,-0.3125)"/>
<path d="M0 0 C0.88494141 -0.01224609 1.76988281 -0.02449219 2.68164062 -0.03710938 C3.52791016 -0.03904297 4.37417969 -0.04097656 5.24609375 -0.04296875 C6.02525146 -0.04707764 6.80440918 -0.05118652 7.60717773 -0.05541992 C9.5625 0.1875 9.5625 0.1875 11.5625 2.1875 C11.5625 3.1775 11.5625 4.1675 11.5625 5.1875 C3.9725 5.1875 -3.6175 5.1875 -11.4375 5.1875 C-9.72119379 -1.67772484 -6.33686583 0.00459526 0 0 Z " fill="#FF9700" transform="translate(36.4375,24.8125)"/>
<path d="M0 0 C4 1 4 1 5 2 C5.24966567 5.1382345 5.18521791 8.29049613 5.1875 11.4375 C5.19974609 12.32244141 5.21199219 13.20738281 5.22460938 14.11914062 C5.22654297 14.96541016 5.22847656 15.81167969 5.23046875 16.68359375 C5.23457764 17.46275146 5.23868652 18.24190918 5.24291992 19.04467773 C5 21 5 21 3 23 C2.01 23 1.02 23 0 23 C0 15.41 0 7.82 0 0 Z " fill="#E91D62" transform="translate(18,25)"/>
<path d="M0 0 C7.59 0 15.18 0 23 0 C22 4 22 4 21 5 C17.8617655 5.24966567 14.70950387 5.18521791 11.5625 5.1875 C10.67755859 5.19974609 9.79261719 5.21199219 8.88085938 5.22460938 C8.03458984 5.22654297 7.18832031 5.22847656 6.31640625 5.23046875 C5.53724854 5.23457764 4.75809082 5.23868652 3.95532227 5.24291992 C2 5 2 5 0 3 C0 2.01 0 1.02 0 0 Z " fill="#00A5BA" transform="translate(0,18)"/>
<path d="M0 0 C0.99 0 1.98 0 3 0 C3 7.59 3 15.18 3 23 C-1 22 -1 22 -2 21 C-2.24966567 17.8617655 -2.18521791 14.70950387 -2.1875 11.5625 C-2.19974609 10.67755859 -2.21199219 9.79261719 -2.22460938 8.88085938 C-2.22654297 8.03458984 -2.22847656 7.18832031 -2.23046875 6.31640625 C-2.23457764 5.53724854 -2.23868652 4.75809082 -2.24291992 3.95532227 C-2 2 -2 2 0 0 Z " fill="#429946" transform="translate(27,0)"/>
<path d="M0 0 C1.21816406 0.03480469 1.21816406 0.03480469 2.4609375 0.0703125 C3.68683594 0.09738281 3.68683594 0.09738281 4.9375 0.125 C5.87722656 0.15980469 5.87722656 0.15980469 6.8359375 0.1953125 C7.31741898 6.45457176 7.31741898 6.45457176 5.2109375 9.6953125 C2.8359375 11.1953125 2.8359375 11.1953125 -0.3515625 11.0078125 C-3.1640625 10.1953125 -3.1640625 10.1953125 -4.1640625 9.1953125 C-4.3515625 5.7578125 -4.3515625 5.7578125 -4.1640625 2.1953125 C-2.1640625 0.1953125 -2.1640625 0.1953125 0 0 Z " fill="#E91D63" transform="translate(4.1640625,24.8046875)"/>
<path d="M0 0 C2.8125 0.8125 2.8125 0.8125 3.8125 1.8125 C4 5.25 4 5.25 3.8125 8.8125 C1.8125 10.8125 1.8125 10.8125 -0.3515625 11.0078125 C-1.56972656 10.97300781 -1.56972656 10.97300781 -2.8125 10.9375 C-3.62976562 10.91945313 -4.44703125 10.90140625 -5.2890625 10.8828125 C-5.91554687 10.85960937 -6.54203125 10.83640625 -7.1875 10.8125 C-7.66898148 4.55324074 -7.66898148 4.55324074 -5.5625 1.3125 C-3.1875 -0.1875 -3.1875 -0.1875 0 0 Z " fill="#4BAD4F" transform="translate(44.1875,12.1875)"/>
<path d="M0 0 C1.45945288 0.08708669 2.91765868 0.19526907 4.375 0.3125 C5.59316406 0.39951172 5.59316406 0.39951172 6.8359375 0.48828125 C9 1 9 1 11 4 C10.44444444 9.55555556 10.44444444 9.55555556 9 11 C5.5625 11.1875 5.5625 11.1875 2 11 C0 9 0 9 -0.1953125 6.8359375 C-0.17210938 6.02382813 -0.14890625 5.21171875 -0.125 4.375 C-0.10695313 3.55773438 -0.08890625 2.74046875 -0.0703125 1.8984375 C-0.04710938 1.27195313 -0.02390625 0.64546875 0 0 Z " fill="#FE9700" transform="translate(25,37)"/>
<path d="M0 0 C3.5625 0.1875 3.5625 0.1875 5.5625 2.1875 C5.7578125 4.3515625 5.7578125 4.3515625 5.6875 6.8125 C5.66945313 7.62976563 5.65140625 8.44703125 5.6328125 9.2890625 C5.59800781 10.22878906 5.59800781 10.22878906 5.5625 11.1875 C4.10304712 11.10041331 2.64484132 10.99223093 1.1875 10.875 C0.37539063 10.81699219 -0.43671875 10.75898438 -1.2734375 10.69921875 C-3.4375 10.1875 -3.4375 10.1875 -5.4375 7.1875 C-4.7446298 0.25879799 -4.7446298 0.25879799 0 0 Z " fill="#00B9D1" transform="translate(17.4375,-0.1875)"/>
<path d="M0 0 C0.7425 0.2475 1.485 0.495 2.25 0.75 C0.69396229 4.56936528 -1.70604931 7.01044438 -4.75 9.75 C-5.41 9.75 -6.07 9.75 -6.75 9.75 C-7.07728047 6.14991481 -7.15422813 4.33388508 -5.0625 1.3125 C-2.75 -0.25 -2.75 -0.25 0 0 Z " fill="#439A47" transform="translate(43.75,12.25)"/>
<path d="M0 0 C3.81936528 1.55603771 6.26044438 3.95604931 9 7 C9 7.66 9 8.32 9 9 C7.081875 8.8453125 7.081875 8.8453125 5.125 8.6875 C4.04605469 8.60048828 4.04605469 8.60048828 2.9453125 8.51171875 C1 8 1 8 -1 5 C-0.625 2.3125 -0.625 2.3125 0 0 Z " fill="#00A6BB" transform="translate(13,2)"/>
<path d="M0 0 C1.13199353 0.9080162 2.25532363 1.82683826 3.375 2.75 C4.00148438 3.26046875 4.62796875 3.7709375 5.2734375 4.296875 C7.08312318 6.08199481 8.00117455 7.67949644 9 10 C5.625 10.125 5.625 10.125 2 10 C0 8 0 8 -0.1953125 6.0546875 C-0.13020833 4.03645833 -0.06510417 2.01822917 0 0 Z " fill="#E18600" transform="translate(25,38)"/>
<path d="M0 0 C2.01822917 0.06510417 4.03645833 0.13020833 6.0546875 0.1953125 C5.1466713 1.32730603 4.22784924 2.45063613 3.3046875 3.5703125 C2.79421875 4.19679688 2.28375 4.82328125 1.7578125 5.46875 C-0.02730731 7.27843568 -1.62480894 8.19648705 -3.9453125 9.1953125 C-4.0703125 5.8203125 -4.0703125 5.8203125 -3.9453125 2.1953125 C-1.9453125 0.1953125 -1.9453125 0.1953125 0 0 Z " fill="#CE1A57" transform="translate(3.9453125,24.8046875)"/>
</svg>
