<?xml version="1.0" encoding="UTF-8"?>
<svg id="Layer_1" data-name="Layer 1" xmlns="http://www.w3.org/2000/svg" viewBox="0 0 80.21 80">
  <defs>
    <style>
      .cls-1 {
        fill: #0c834c;
      }

      .cls-2 {
        fill: #34ab6a;
      }

      .cls-3 {
        fill: #fff;
      }

      .cls-4 {
        fill: #da3832;
      }
    </style>
  </defs>
  <path class="cls-2" d="M80.21,0H24.21C10.96,0,.21,10.75.21,24v55.59C3.47,72.86,41.41,8.14,80.21,0Z"/>
  <path class="cls-1" d="M66.06,9.13c-6.47,4.89-13.34,10.91-17.37,18-7.29,13.77-5.3,28.88-20.95,36.33-4.09,2.06-8.97,3.92-12.34,5.75-4.11,1.88-13.27,8.13-15.4,10.62v.18h56c13.25,0,24-10.75,24-24V0c-3.73,2.15-9.46,5.74-13.94,9.13Z"/>
  <path class="cls-4" d="M0,80.06h0c.05-.08.14-.16.2-.24v-.23c-.11.22-.18.38-.21.47Z"/>
  <path class="cls-3" d="M15.61,69.21c3.37-1.82,8.25-3.69,12.34-5.75,15.65-7.45,13.66-22.56,20.95-36.33,4.02-7.09,10.9-13.12,17.37-18,4.48-3.39,10.21-6.98,13.94-9.13C41.41,8.14,3.47,72.86.21,79.59v.23c2.14-2.48,11.29-8.74,15.4-10.62Z"/>
</svg>